<svg height="200" width="200" xmlns="http://www.w3.org/2000/svg" viewBox="0 0 512 512" xml:space="preserve">
    <path d="M400.746 0H110.75C87.185 0 68.267 19.51 68.267 43.081v426.506c0 23.571 18.919 42.413 42.483 42.413h289.996c23.565 0 42.987-18.842 42.987-42.413V43.081C443.733 19.51 424.31 0 400.746 0zm25.921 469.587c0 14.16-11.767 25.346-25.921 25.346H110.75c-14.154 0-25.417-11.185-25.417-25.346V43.081c0-14.16 11.263-26.015 25.417-26.015h289.996c14.154 0 25.921 11.854 25.921 26.015v426.506z"/>
    <path d="M298.414 59.733h-85.333a8.534 8.534 0 0 0 0 17.066h85.333a8.533 8.533 0 0 0 0-17.066zM375.215 110.933H136.281a8.534 8.534 0 0 0 0 17.066h238.933a8.533 8.533 0 0 0 .001-17.066zM375.215 162.133H136.281a8.534 8.534 0 0 0 0 17.066h238.933a8.533 8.533 0 0 0 .001-17.066zM375.215 213.333H136.281a8.534 8.534 0 0 0 0 17.066h238.933a8.533 8.533 0 0 0 .001-17.066zM349.615 324.267h-50.948v-50.865c0-4.713-4.073-8.869-8.786-8.869h-68.267c-4.712 0-8.281 4.156-8.281 8.869v50.865h-51.452c-4.712 0-8.281 4.156-8.281 8.869v68.267c0 4.713 3.569 8.198 8.281 8.198h51.452v51.535c0 4.713 3.569 8.198 8.281 8.198h68.267c4.713 0 8.786-3.485 8.786-8.198V409.6h50.948c4.713 0 8.786-3.485 8.786-8.198v-68.267c-.001-4.712-4.074-8.868-8.786-8.868zm-8.282 68.266h-51.452c-4.712 0-8.281 4.156-8.281 8.869v50.865h-51.2v-50.865c0-4.713-4.073-8.869-8.786-8.869h-50.948v-51.2h50.948c4.713 0 8.786-3.485 8.786-8.198V281.6h51.2v51.535c0 4.713 3.569 8.198 8.281 8.198h51.452v51.2z"/>
</svg>
