<svg width="84" height="68" fill="none" xmlns="http://www.w3.org/2000/svg">
    <g filter="url(#a)">
        <path d="M31.708 1.829c-.47-.03-.958-.03-1.666-.03h-6.05c-3.388 0-6.121 0-8.334.18-2.275.187-4.275.579-6.125 1.52a15.625 15.625 0 0 0-6.829 6.834c-.942 1.85-1.337 3.85-1.525 6.125C1 18.67 1 21.404 1 24.79v18.6c0 3.388 0 6.12.18 8.333C1.366 54 1.757 56 2.7 57.85a15.625 15.625 0 0 0 6.833 6.83c1.85.941 3.85 1.337 6.125 1.525 2.213.179 4.946.179 8.333.179h35.267c3.388 0 6.121 0 8.334-.18 2.275-.187 4.275-.579 6.129-1.52a15.625 15.625 0 0 0 6.825-6.834c.941-1.85 1.337-3.85 1.525-6.125.179-2.212.179-4.945.179-8.333v-6.1c0-3.387 0-6.12-.18-8.333-.187-2.275-.578-4.275-1.52-6.125a15.625 15.625 0 0 0-6.833-6.83c-1.85-.941-3.85-1.337-6.125-1.524-2.213-.18-4.946-.18-8.33-.18h-5.958c-.837 0-1.129 0-1.387-.016a9.374 9.374 0 0 1-6.909-3.696c-.133-.176-.267-.375-.585-.85l-.198-.296-.05-.08-.14-.206c-.322-.48-.561-.835-.81-1.168a15.625 15.625 0 0 0-11.517-6.158Z" fill="gray" fill-opacity=".2"/>
        <path d="M31.708 1.829c-.47-.03-.958-.03-1.666-.03h-6.05c-3.388 0-6.121 0-8.334.18-2.275.187-4.275.579-6.125 1.52a15.625 15.625 0 0 0-6.829 6.834c-.942 1.85-1.337 3.85-1.525 6.125C1 18.67 1 21.404 1 24.79v18.6c0 3.388 0 6.12.18 8.333C1.366 54 1.757 56 2.7 57.85a15.625 15.625 0 0 0 6.833 6.83c1.85.941 3.85 1.337 6.125 1.525 2.213.179 4.946.179 8.333.179h35.267c3.388 0 6.121 0 8.334-.18 2.275-.187 4.275-.579 6.129-1.52a15.625 15.625 0 0 0 6.825-6.834c.941-1.85 1.337-3.85 1.525-6.125.179-2.212.179-4.945.179-8.333v-6.1c0-3.387 0-6.12-.18-8.333-.187-2.275-.578-4.275-1.52-6.125a15.625 15.625 0 0 0-6.833-6.83c-1.85-.941-3.85-1.337-6.125-1.524-2.213-.18-4.946-.18-8.33-.18h-5.958c-.837 0-1.129 0-1.387-.016a9.374 9.374 0 0 1-6.909-3.696c-.133-.176-.267-.375-.585-.85l-.198-.296-.05-.08-.14-.206c-.322-.48-.561-.835-.81-1.168a15.625 15.625 0 0 0-11.517-6.158Z" stroke="url(#b)" stroke-width="2" style="mix-blend-mode:color"/>
    </g>
    <defs>
        <linearGradient id="b" x1="41.625" y1="1.799" x2="41.625" y2="66.383" gradientUnits="userSpaceOnUse">
            <stop stop-color="#fff" stop-opacity=".23"/>
            <stop offset="1" stop-color="gray" stop-opacity="0"/>
        </linearGradient>
        <filter id="a" x="-5" y="-4.201" width="93.25" height="76.583" filterUnits="userSpaceOnUse" color-interpolation-filters="sRGB">
            <feFlood flood-opacity="0" result="BackgroundImageFix"/>
            <feGaussianBlur in="BackgroundImageFix" stdDeviation="2.5"/>
            <feComposite in2="SourceAlpha" operator="in" result="effect1_backgroundBlur_1_14"/>
            <feBlend in="SourceGraphic" in2="effect1_backgroundBlur_1_14" result="shape"/>
            <feColorMatrix in="SourceAlpha" values="0 0 0 0 0 0 0 0 0 0 0 0 0 0 0 0 0 0 127 0" result="hardAlpha"/>
            <feOffset/>
            <feGaussianBlur stdDeviation="25"/>
            <feComposite in2="hardAlpha" operator="arithmetic" k2="-1" k3="1"/>
            <feColorMatrix values="0 0 0 0 1 0 0 0 0 1 0 0 0 0 1 0 0 0 1 0"/>
            <feBlend in2="shape" result="effect2_innerShadow_1_14"/>
        </filter>
    </defs>
</svg>
