<svg width="1421" height="252" fill="none" xmlns="http://www.w3.org/2000/svg">
    <path d="M.75 3H44.3c10.66 0 18.417 2.123 23.27 6.37 4.853 4.16 7.28 10.14 7.28 17.94 0 4.68-1.213 8.71-3.64 12.09-2.427 3.293-5.72 5.677-9.88 7.15 5.373 1.213 9.62 3.683 12.74 7.41 3.12 3.64 4.68 8.407 4.68 14.3 0 7.973-2.643 14.257-7.93 18.85C65.62 91.703 57.213 94 45.6 94H.75V3ZM40.4 76.06c5.633 0 9.533-.823 11.7-2.47 2.167-1.733 3.25-4.377 3.25-7.93s-1.127-6.197-3.38-7.93c-2.167-1.733-6.11-2.6-11.83-2.6H24.15v20.93H40.4Zm-1.82-36.79c5.027 0 8.407-.78 10.14-2.34 1.82-1.647 2.73-3.943 2.73-6.89 0-3.033-.91-5.287-2.73-6.76-1.733-1.56-5.07-2.34-10.01-2.34H24.15v18.33h14.43ZM143.431 76.58h-30.42L106.771 94h-22.1l33.15-91h23.4l33.15 91h-24.7l-6.24-17.42Zm-23.79-17.94h17.16l-8.58-27.04-8.58 27.04ZM187.366 3h23.4v71.76h20.8V3h23.4v71.76h20.8V3h23.4v91h-111.8V3ZM319.966 3h66.3v17.94h-42.9v17.81h39v16.9h-39v20.41h42.9V94h-66.3V3ZM469.43 95.69c-12.74 0-22.36-2.773-28.86-8.32-6.413-5.633-9.793-13.39-10.14-23.27h24.18c.347 4.16 1.604 7.453 3.77 9.88 2.167 2.34 5.85 3.51 11.05 3.51 5.2 0 8.97-.953 11.31-2.86s3.51-4.593 3.51-8.06c0-1.647-.26-3.163-.78-4.55a7.05 7.05 0 0 0-2.47-3.64c-1.126-1.04-2.773-1.82-4.94-2.34-2.08-.607-4.723-.91-7.93-.91h-8.32V39.27h8.32c2.427 0 4.464-.26 6.11-.78 1.647-.607 2.947-1.387 3.9-2.34 1.04-.953 1.777-2.037 2.21-3.25.434-1.213.65-2.47.65-3.77 0-1.3-.173-2.513-.52-3.64a7.079 7.079 0 0 0-1.82-3.12c-.866-.867-2.08-1.56-3.64-2.08-1.473-.52-3.336-.78-5.59-.78-4.16 0-7.28.953-9.36 2.86-2.08 1.82-3.25 4.68-3.51 8.58h-24.18c.347-10.053 3.51-17.507 9.49-22.36 5.98-4.853 15.167-7.28 27.56-7.28 12.394 0 21.45 2.21 27.17 6.63 5.72 4.42 8.58 10.833 8.58 19.24 0 4.767-1.213 8.84-3.64 12.22-2.34 3.293-5.72 5.677-10.14 7.15 5.547 1.3 9.75 3.813 12.61 7.54 2.947 3.64 4.42 8.407 4.42 14.3 0 4.073-.78 7.8-2.34 11.18-1.56 3.293-3.943 6.153-7.15 8.58-3.206 2.427-7.28 4.29-12.22 5.59-4.853 1.3-10.616 1.95-17.29 1.95ZM517.901 74.76h10.4c1.127-2.947 2.037-6.327 2.73-10.14.78-3.9 1.387-8.017 1.82-12.35.434-4.42.737-8.927.91-13.52.26-4.68.39-9.23.39-13.65V3h66.82v71.76h9.23v36.14h-20.28V94h-51.74v16.9h-20.28V74.76Zm59.67 0V22.24h-21.58v5.46c0 10.573-.433 19.717-1.3 27.43-.78 7.627-2.08 14.17-3.9 19.63h26.78ZM664.959 95.69c-5.98 0-11.657-.867-17.03-2.6-5.374-1.733-10.097-4.463-14.17-8.19-3.987-3.813-7.15-8.623-9.49-14.43-2.34-5.893-3.51-13-3.51-21.32v-2.6c0-7.973 1.17-14.82 3.51-20.54 2.34-5.72 5.503-10.4 9.49-14.04 4.073-3.64 8.796-6.327 14.17-8.06 5.373-1.733 11.05-2.6 17.03-2.6s11.656.867 17.03 2.6c5.373 1.733 10.053 4.42 14.04 8.06 4.073 3.64 7.28 8.32 9.62 14.04 2.34 5.72 3.51 12.567 3.51 20.54v2.6c0 8.32-1.17 15.427-3.51 21.32-2.34 5.807-5.547 10.617-9.62 14.43-3.987 3.727-8.667 6.457-14.04 8.19-5.374 1.733-11.05 2.6-17.03 2.6Zm0-19.5c2.6 0 5.113-.39 7.54-1.17 2.426-.867 4.55-2.297 6.37-4.29 1.82-2.08 3.293-4.853 4.42-8.32 1.126-3.467 1.69-7.887 1.69-13.26v-2.6c0-5.027-.564-9.187-1.69-12.48-1.127-3.38-2.6-6.023-4.42-7.93-1.82-1.993-3.944-3.38-6.37-4.16a24.49 24.49 0 0 0-7.54-1.17c-2.6 0-5.114.39-7.54 1.17-2.427.78-4.55 2.167-6.37 4.16-1.82 1.907-3.294 4.55-4.42 7.93-1.127 3.293-1.69 7.453-1.69 12.48v2.6c0 5.373.563 9.793 1.69 13.26 1.126 3.467 2.6 6.24 4.42 8.32 1.82 1.993 3.943 3.423 6.37 4.29 2.426.78 4.94 1.17 7.54 1.17ZM726.648 3h37.05c12.653 0 21.97 2.773 27.95 8.32 6.066 5.46 9.1 13.043 9.1 22.75s-3.034 17.333-9.1 22.88c-5.98 5.46-15.297 8.19-27.95 8.19h-13.65V94h-23.4V3Zm34.45 42.9c5.98 0 10.183-.997 12.61-2.99 2.426-1.993 3.64-4.94 3.64-8.84 0-3.9-1.214-6.847-3.64-8.84-2.427-1.993-6.63-2.99-12.61-2.99h-11.05V45.9h11.05ZM918.977 3h43.55c10.66 0 18.416 2.123 23.27 6.37 4.853 4.16 7.28 10.14 7.28 17.94 0 4.68-1.214 8.71-3.64 12.09-2.427 3.293-5.72 5.677-9.88 7.15 5.373 1.213 9.62 3.683 12.74 7.41 3.12 3.64 4.68 8.407 4.68 14.3 0 7.973-2.644 14.257-7.93 18.85-5.2 4.593-13.607 6.89-25.22 6.89h-44.85V3Zm39.65 73.06c5.633 0 9.533-.823 11.7-2.47 2.166-1.733 3.25-4.377 3.25-7.93s-1.127-6.197-3.38-7.93c-2.167-1.733-6.11-2.6-11.83-2.6h-15.99v20.93h16.25Zm-1.82-36.79c5.026 0 8.406-.78 10.14-2.34 1.82-1.647 2.73-3.943 2.73-6.89 0-3.033-.91-5.287-2.73-6.76-1.734-1.56-5.07-2.34-10.01-2.34h-14.56v18.33h14.43ZM1013.24 3h23.4v30.16h13.65c12.65 0 21.97 2.73 27.95 8.19 6.06 5.46 9.1 12.87 9.1 22.23 0 9.36-3.04 16.77-9.1 22.23-5.98 5.46-15.3 8.19-27.95 8.19h-37.05V3Zm34.45 71.76c5.46 0 9.4-1.04 11.83-3.12 2.42-2.08 3.64-4.767 3.64-8.06s-1.22-5.98-3.64-8.06c-2.43-2.08-6.37-3.12-11.83-3.12h-11.05v22.36h11.05ZM1102.93 3h66.3v17.94h-42.9v17.81h39v16.9h-39v20.41h42.9V94h-66.3V3ZM457.781 159h23.4v34.58h33.8V159h23.4v91h-23.4v-37.18h-33.8V250h-23.4v-91ZM607.511 232.58h-30.42l-6.24 17.42h-22.1l33.15-91h23.4l33.15 91h-24.7l-6.24-17.42Zm-23.79-17.94h17.16l-8.58-27.04-8.58 27.04ZM648.846 159h23.4v71.76h20.8V159h23.4v71.76h20.8V159h23.4v91h-111.8v-91ZM829.806 232.58h-30.42l-6.24 17.42h-22.1l33.15-91h23.4l33.15 91h-24.7l-6.24-17.42Zm-23.79-17.94h17.16l-8.58-27.04-8.58 27.04ZM934.155 251.69c-12.74 0-22.36-2.773-28.86-8.32-6.413-5.633-9.793-13.39-10.14-23.27h24.18c.347 4.16 1.603 7.453 3.77 9.88 2.167 2.34 5.85 3.51 11.05 3.51 5.2 0 8.97-.953 11.31-2.86s3.51-4.593 3.51-8.06c0-1.647-.26-3.163-.78-4.55a7.057 7.057 0 0 0-2.47-3.64c-1.127-1.04-2.773-1.82-4.94-2.34-2.08-.607-4.723-.91-7.93-.91h-8.32v-15.86h8.32c2.427 0 4.463-.26 6.11-.78 1.647-.607 2.947-1.387 3.9-2.34 1.04-.953 1.777-2.037 2.21-3.25.433-1.213.65-2.47.65-3.77 0-1.3-.173-2.513-.52-3.64a7.091 7.091 0 0 0-1.82-3.12c-.867-.867-2.08-1.56-3.64-2.08-1.473-.52-3.337-.78-5.59-.78-4.16 0-7.28.953-9.36 2.86-2.08 1.82-3.25 4.68-3.51 8.58h-24.18c.347-10.053 3.51-17.507 9.49-22.36 5.98-4.853 15.167-7.28 27.56-7.28 12.393 0 21.45 2.21 27.17 6.63 5.72 4.42 8.58 10.833 8.58 19.24 0 4.767-1.213 8.84-3.64 12.22-2.34 3.293-5.72 5.677-10.14 7.15 5.547 1.3 9.75 3.813 12.61 7.54 2.947 3.64 4.42 8.407 4.42 14.3 0 4.073-.78 7.8-2.34 11.18-1.56 3.293-3.943 6.153-7.15 8.58-3.207 2.427-7.28 4.29-12.22 5.59-4.853 1.3-10.617 1.95-17.29 1.95ZM1034.96 232.58h-30.42L998.302 250h-22.1l33.148-91h23.4l33.15 91h-24.7l-6.24-17.42Zm-23.79-17.94h17.16l-8.58-27.04-8.58 27.04ZM1076.3 159h66.95v19.24h-43.55v13.52h14.95c6.32 0 11.78.693 16.38 2.08 4.68 1.3 8.53 3.207 11.57 5.72 3.12 2.427 5.41 5.417 6.89 8.97 1.47 3.467 2.21 7.367 2.21 11.7 0 9.36-3.04 16.683-9.1 21.97-5.98 5.2-15.3 7.8-27.95 7.8h-38.35v-91Zm35.75 71.76c5.63 0 9.62-.91 11.96-2.73 2.34-1.907 3.51-4.507 3.51-7.8s-1.17-5.85-3.51-7.67c-2.34-1.907-6.33-2.86-11.96-2.86h-12.35v21.06h12.35ZM1205.61 251.69c-5.98 0-11.66-.867-17.03-2.6-5.38-1.733-10.1-4.463-14.17-8.19-3.99-3.813-7.15-8.623-9.49-14.43-2.34-5.893-3.51-13-3.51-21.32v-2.6c0-7.973 1.17-14.82 3.51-20.54 2.34-5.72 5.5-10.4 9.49-14.04 4.07-3.64 8.79-6.327 14.17-8.06 5.37-1.733 11.05-2.6 17.03-2.6s11.65.867 17.03 2.6c5.37 1.733 10.05 4.42 14.04 8.06 4.07 3.64 7.28 8.32 9.62 14.04 2.34 5.72 3.51 12.567 3.51 20.54v2.6c0 8.32-1.17 15.427-3.51 21.32-2.34 5.807-5.55 10.617-9.62 14.43-3.99 3.727-8.67 6.457-14.04 8.19-5.38 1.733-11.05 2.6-17.03 2.6Zm0-19.5c2.6 0 5.11-.39 7.54-1.17 2.42-.867 4.55-2.297 6.37-4.29 1.82-2.08 3.29-4.853 4.42-8.32 1.12-3.467 1.69-7.887 1.69-13.26v-2.6c0-5.027-.57-9.187-1.69-12.48-1.13-3.38-2.6-6.023-4.42-7.93-1.82-1.993-3.95-3.38-6.37-4.16-2.43-.78-4.94-1.17-7.54-1.17-2.6 0-5.12.39-7.54 1.17-2.43.78-4.55 2.167-6.37 4.16-1.82 1.907-3.3 4.55-4.42 7.93-1.13 3.293-1.69 7.453-1.69 12.48v2.6c0 5.373.56 9.793 1.69 13.26 1.12 3.467 2.6 6.24 4.42 8.32 1.82 1.993 3.94 3.423 6.37 4.29 2.42.78 4.94 1.17 7.54 1.17ZM1284.88 178.24h-27.95V159h79.3v19.24h-27.95V250h-23.4v-71.76ZM1389.8 232.58h-30.42l-6.24 17.42h-22.1l33.15-91h23.4l33.15 91h-24.7l-6.24-17.42Zm-23.79-17.94h17.16l-8.58-27.04-8.58 27.04ZM1286.53 17.856l-25.76 14.86V3h-18.24v29.717l-25.76-14.86-9.12 15.785 25.76 14.856-25.76 14.856 9.12 15.785 25.76-14.856V94h18.24V64.283l25.76 14.856 9.12-15.785-25.76-14.856 25.76-14.856-9.12-15.786ZM1404.65 12.405c-8.78 0-15.68 6.896-15.68 15.674 0 7.523 5.33 13.793 12.54 15.36v23.825c0 11.286-9.09 20.377-20.37 20.377a20.336 20.336 0 0 1-20.38-20.377v-1.88c12.23-1.568 21.94-12.226 21.94-24.766V15.54c0-3.448-2.82-6.27-6.27-6.27h-3.13c-1.88 0-3.14-1.253-3.14-3.134S1368.91 3 1367.03 3s-3.14 1.254-3.14 3.135c0 5.33 4.08 9.404 9.41 9.404h3.13v25.08c0 10.344-8.46 18.808-18.8 18.808-10.35 0-18.81-8.464-18.81-18.809V15.54h3.13c5.33 0 9.41-4.075 9.41-9.404 0-1.881-1.26-3.135-3.14-3.135-1.88 0-3.13 1.254-3.13 3.135 0 1.88-1.26 3.135-3.14 3.135h-3.13c-3.45 0-6.27 2.821-6.27 6.27v25.078c0 12.853 9.71 23.198 21.94 24.766v1.88c0 14.734 11.91 26.647 26.65 26.647 14.73 0 26.64-11.913 26.64-26.647V43.44c7.21-1.568 12.54-7.837 12.54-15.361 0-8.778-6.89-15.674-15.67-15.674Zm2.19 17.868c-.62.627-1.25.94-2.19.94-.32 0-.94 0-1.26-.313-.31-.313-.62-.313-.94-.627-.62-.627-.94-1.254-.94-2.194s.32-1.568.94-2.195c.32-.313.63-.627.94-.627 1.26-.627 2.51-.313 3.45.627.63.627.94 1.254.94 2.195 0 .94-.31 1.567-.94 2.194ZM350.714 249.486c-1.96-.608-12.782-11.051-13.906-13.413a10.334 10.334 0 0 1-.646-7.283c.532-1.937 1.694-3.281 11.089-12.759l10.496-10.595 11.286 11.278 11.278 11.271-9.904 9.949c-7.336 7.382-10.488 10.246-12.174 11.051a9.875 9.875 0 0 1-7.519.509v-.008Zm53.498-.509c-1.823-.866-8.78-7.61-34.663-33.569-35.21-35.331-34.268-34.253-33.759-38.764.38-3.312 1.572-5.028 7.557-10.884 6-5.871 7.443-6.759 11.066-6.744 3.873.008 4.481.562 38.483 34.663 35.209 35.324 34.268 34.245 33.759 38.764-.38 3.311-1.572 5.028-7.557 10.883-4.428 4.33-6.213 5.773-7.648 6.198-2.78.813-4.694.668-7.238-.547Zm-21.774-29.217c.152-.395-.061-1.056-.471-1.466-.684-.684-.798-.684-1.489 0-.934.934-.501 2.187.744 2.187.517 0 1.064-.326 1.216-.721Zm-3.752-3.691c.071-.239.079-.493.022-.735a1.43 1.43 0 0 0-.349-.648 1.416 1.416 0 0 0-1.382-.326c-.76.304-1.033 1.595-.456 2.172.57.577 1.876.304 2.165-.463Zm5.271-1.74c.455-.546.455-.82 0-1.367-1.14-1.367-2.765-.319-2.112 1.367.145.38.547.684.904.684.349 0 .896-.304 1.208-.684Zm-8.917-1.898a1.418 1.418 0 0 0-.319-1.383 1.42 1.42 0 0 0-1.382-.326c-.759.288-1.04 1.595-.463 2.164.577.578 1.876.304 2.164-.455Zm14.749-.494c.19-1.306-1.093-1.861-2.065-.896-.965.972-.41 2.255.896 2.066a1.294 1.294 0 0 0 1.169-1.17Zm-9.478-1.253c.456-.547.456-.82 0-1.367-1.139-1.367-2.757-.319-2.111 1.367.144.38.554.683.904.683.349 0 .896-.303 1.215-.683h-.008Zm-9.167-1.747c.699-.835-.44-2.377-1.466-1.975-.744.281-1.025 1.702-.448 2.279.494.493 1.367.349 1.914-.304Zm14.856-.759c0-.836-.274-1.17-1.026-1.276-1.116-.16-1.746.812-1.298 1.997.167.425.683.653 1.298.57.76-.107 1.026-.456 1.026-1.291Zm-9.555-1.823c0-.707-.303-1.177-.805-1.276-.896-.175-1.481.919-1.063 1.997.425 1.139 1.868.585 1.868-.714v-.007Zm14.787.698c.76-.911.259-2.05-.903-2.05-.517 0-1.064.304-1.2.683-.266.684.531 2.051 1.2 2.051.19 0 .6-.304.911-.684h-.008Zm-23.893-2.506c0-1.306-1.443-1.853-1.876-.721-.41 1.078.175 2.172 1.071 1.997.509-.099.805-.57.805-1.276Zm14.787.684c.76-.912.258-2.051-.904-2.051-1.032 0-1.61.987-1.2 2.051.335.873 1.383.873 2.104 0Zm14.947-.585c.19-1.306-1.094-1.846-2.073-.874-.608.608-.623.836-.122 1.444.82.987 2.02.683 2.203-.563l-.008-.007Zm-24.273-1.929c0-.714-.296-1.177-.798-1.276-.903-.175-1.488.911-1.071 1.997.433 1.132 1.869.578 1.869-.714v-.007Zm14.795.691c.805-.972.205-2.142-1.018-1.975-1.162.175-1.656 1.671-.729 2.256.85.532 1.101.501 1.747-.273v-.008Zm-9.152-1.77c.759-.911.114-2.179-1.033-2.012-1.117.159-1.572 1.671-.668 2.24.835.532 1.101.501 1.701-.228Zm14.551.228c.897-.577.441-2.081-.683-2.24-1.139-.167-1.785 1.101-1.025 2.012.607.722.858.76 1.708.228Zm-9.037-2.096c.805-.987.205-2.149-1.018-1.975-1.17.167-1.656 1.664-.737 2.248.851.532 1.101.502 1.747-.273h.008Zm-9.16-1.77c.76-.911.114-2.179-1.025-2.02-1.117.16-1.572 1.671-.676 2.241.843.531 1.101.501 1.701-.228V198Zm14.552.221c.896-.57.44-2.081-.676-2.241-1.139-.167-1.785 1.101-1.025 2.013.6.721.858.759 1.701.228Zm-9.083-2.059c.759-.911.106-2.179-1.033-2.012-1.117.159-1.573 1.671-.676 2.24.85.532 1.109.502 1.709-.228Zm5.817-3.205c-.152-.395-.699-.721-1.215-.721-1.306 0-1.724 1.344-.668 2.119.721.524.949.524 1.503 0 .357-.357.532-.972.38-1.367v-.031Zm-3.721-3.22c0-1.002-1.421-1.504-2.157-.759-.767.759-.008 1.974 1.131 1.815.669-.099 1.026-.456 1.026-1.056Zm11.027 2.605-11.27-11.278 10.594-10.496c9.471-9.395 10.823-10.557 12.76-11.089 4.936-1.344 7.367-.136 14.536 7.185 5.871 6 6.752 7.443 6.737 11.066 0 3.372-1.754 5.673-12.129 15.995l-9.949 9.903-11.279-11.278v-.008Z" fill="#3DC362"/>
    <g clip-path="url(#a)" fill="#3DC362">
        <path d="M859.65 0c-25.916 0-47 21.084-47 47s21.084 47 47 47 47-21.084 47-47-21.084-47-47-47Zm0 82.537c-19.595 0-35.537-15.942-35.537-35.537s15.942-35.537 35.537-35.537S895.187 27.405 895.187 47s-15.942 35.537-35.537 35.537Z"/>
        <path d="M878.409 39.745h-11.504V28.241a1.792 1.792 0 0 0-1.792-1.791h-10.926a1.79 1.79 0 0 0-1.792 1.791v11.504h-11.504a1.792 1.792 0 0 0-1.791 1.792v10.926a1.79 1.79 0 0 0 1.791 1.792h11.504v11.504a1.791 1.791 0 0 0 1.792 1.791h10.926a1.792 1.792 0 0 0 1.792-1.791V54.255h11.504a1.787 1.787 0 0 0 1.655-1.106c.09-.218.136-.45.136-.686V41.537a1.792 1.792 0 0 0-1.791-1.792Z"/>
    </g>
    <defs>
        <clipPath id="a">
            <path fill="#fff" transform="translate(812.65)" d="M0 0h94v94H0z"/>
        </clipPath>
    </defs>
</svg>
