<svg viewBox="0 0 512 512" id="Layer_1" version="1.1" xml:space="preserve" xmlns="http://www.w3.org/2000/svg" fill="#000">
    <g id="SVGRepo_iconCarrier">
        <style>
            .st1{fill:#16ade1}
        </style>
        <path d="M476.5 160c-7.3-22.6-31.2-42.7-54.4-46.7-110.7-16.4-221.5-16.4-332.2 0-23.3 4-47.2 24.2-54.4 46.7-18 64.8-18 127.1 0 191.9 7.3 22.6 31.2 42.7 54.4 46.7 11.2 1.7 22.4 3.2 33.6 4.5v-28.4c0-3.9 3.1-7 7-7s7 3.1 7 7V404c0 .3 0 .5-.1.8 94.9 10 189.8 8 284.6-6 23.3-4 47.2-24.2 54.4-46.7 18.1-65 18.1-127.2.1-192.1zm-397.8-4.4c118.2-11.5 236.5-11.5 354.7 0 5.4 25.3 8.8 50.3 10.1 75.4H419c-2.9 0-5.5 1.8-6.5 4.4l-9.7 24.6-21.8-51.7c-1-2.3-3.1-3.9-5.6-4.2-2.5-.3-5 .8-6.5 2.8l-19.9 27h-13.5L310 192.3c-1.1-1.8-3-3-5.1-3.3-2.1-.3-4.3.5-5.8 2l-42.9 42.9h-41.6c-3.1 0-5.8 2-6.7 4.9l-9.7 31.2-21.2-70.3c-.7-2.3-2.6-4.2-5-4.8-2.4-.6-4.9.1-6.7 1.8L120.1 242H68c1-28.8 4.5-57.5 10.7-86.4zm58.7 202.3c-.1.4-.2.9-.4 1.3l-.6 1.2c-.3.4-.5.8-.9 1.1-.3.3-.7.6-1.1.9-.4.3-.8.5-1.2.6-.4.2-.9.3-1.3.4-.4.1-.9.1-1.4.1-1.9 0-3.6-.8-5-2.1-.3-.3-.6-.7-.9-1.1-.3-.4-.5-.8-.7-1.2-.2-.4-.3-.9-.4-1.3-.1-.5-.1-.9-.1-1.4s0-.9.1-1.4c.1-.4.2-.9.4-1.3s.4-.8.7-1.2.5-.7.9-1.1c1.6-1.6 4-2.4 6.3-1.9.5.1.9.2 1.3.4l1.2.6c.4.3.8.6 1.1.9.3.3.6.7.9 1.1.3.4.5.8.6 1.2.2.4.3.9.4 1.3.1.4.1.9.1 1.4s.1 1 0 1.5zm73 28.5c-8.5 0-15.5-6.9-15.5-15.5s6.9-15.5 15.5-15.5c8.5 0 15.5 6.9 15.5 15.5s-7 15.5-15.5 15.5zm56.2 0c-8.5 0-15.5-6.9-15.5-15.5s6.9-15.5 15.5-15.5c8.5 0 15.5 6.9 15.5 15.5s-7 15.5-15.5 15.5zm56.1 0c-8.5 0-15.5-6.9-15.5-15.5s6.9-15.5 15.5-15.5c8.5 0 15.5 6.9 15.5 15.5s-6.9 15.5-15.5 15.5zm116.1-57.8a2655.2 2655.2 0 0 1-365.6 0c-3.6-24.5-5.4-48.6-5.4-72.6H123c1.9 0 3.6-.7 5-2.1l39-39 24.4 81c.9 2.9 3.6 5 6.7 5s5.8-2 6.7-4.9l15-48.2H259c1.9 0 3.6-.7 5-2l38.7-38.7 22.9 37.4c1.3 2.1 3.5 3.3 6 3.3h21c2.2 0 4.3-1.1 5.6-2.8l14.7-20 23.7 56.1c1.1 2.6 3.6 4.3 6.5 4.3h.1c2.8 0 5.4-1.8 6.4-4.4l14.3-36.1h20.3c.6 27.8-1.2 55.6-5.4 83.7z" style="fill:#1b3954"/>
    </g>
</svg>
