<?xml version="1.0" standalone="no"?>
<!DOCTYPE svg PUBLIC "-//W3C//DTD SVG 20010904//EN"
 "http://www.w3.org/TR/2001/REC-SVG-20010904/DTD/svg10.dtd">
<svg version="1.0" xmlns="http://www.w3.org/2000/svg"
 width="700.000000pt" height="700.000000pt" viewBox="0 0 700.000000 700.000000"
 preserveAspectRatio="xMidYMid meet">
<metadata>
Created by potrace 1.14, written by Peter Selinger 2001-2017
</metadata>
<g transform="translate(0.000000,700.000000) scale(0.100000,-0.100000)"
fill="#000000" stroke="none">
<path d="M4 6855 c-6 -23 0 -93 8 -100 2 -1 79 -5 173 -9 182 -6 207 -9 328
-32 239 -47 351 -133 397 -304 13 -47 14 -53 29 -160 6 -40 9 -1127 7 -2785
-2 -2513 -3 -2726 -19 -2802 -33 -160 -96 -254 -205 -311 -48 -24 -137 -53
-177 -57 -5 0 -32 -4 -60 -9 -95 -14 -111 -15 -290 -22 -115 -4 -183 -11 -188
-18 -7 -11 -7 -80 1 -104 3 -10 522 -12 2571 -12 2858 1 2617 -6 2642 69 7 20
14 95 15 166 2 124 11 366 18 485 6 93 18 263 21 300 2 19 6 76 10 125 3 50 8
97 10 105 2 8 6 53 10 100 4 47 9 99 11 115 13 100 16 193 5 200 -21 12 -90
14 -99 2 -5 -7 -12 -30 -16 -52 -44 -259 -156 -556 -290 -765 -46 -73 -50 -78
-127 -169 -229 -270 -526 -416 -909 -447 -110 -9 -1435 -9 -1605 0 -282 15
-399 49 -483 140 -69 74 -103 165 -120 320 -10 83 -9 5325 1 5406 27 236 91
352 234 423 53 27 181 62 258 72 28 4 61 9 75 11 14 2 99 7 190 10 109 4 169
10 178 19 15 14 19 59 8 93 l-8 24 -266 -6 c-147 -3 -343 -9 -437 -14 -215 -9
-988 -9 -1200 1 -88 4 -280 9 -427 13 l-267 6 -7 -27z"/>
</g>
</svg>
