<?xml version="1.0" standalone="no"?>
<!DOCTYPE svg PUBLIC "-//W3C//DTD SVG 20010904//EN"
 "http://www.w3.org/TR/2001/REC-SVG-20010904/DTD/svg10.dtd">
<svg version="1.0" xmlns="http://www.w3.org/2000/svg"
 width="700.000000pt" height="700.000000pt" viewBox="0 0 700.000000 700.000000"
 preserveAspectRatio="xMidYMid meet">
<metadata>
Created by potrace 1.14, written by Peter Selinger 2001-2017
</metadata>
<g transform="translate(0.000000,700.000000) scale(0.100000,-0.100000)"
fill="#000000" stroke="none">
<path d="M2918 6398 c-2 -7 -3 -435 -3 -950 1 -516 0 -938 -1 -938 -1 0 -42
23 -91 51 -48 28 -106 61 -128 74 -22 12 -166 95 -320 185 -154 89 -298 172
-320 185 -22 12 -159 91 -305 176 -146 84 -314 181 -375 215 l-109 63 -17 -32
c-9 -17 -41 -75 -71 -127 -30 -52 -107 -186 -171 -297 -64 -111 -125 -215
-134 -232 -100 -171 -185 -323 -182 -325 2 -2 148 -87 324 -188 176 -102 365
-211 420 -243 55 -32 118 -68 140 -80 22 -12 71 -41 109 -64 37 -22 69 -41 71
-41 2 0 36 -19 77 -43 40 -24 93 -55 118 -69 123 -69 366 -211 372 -217 7 -6
-100 -73 -217 -137 -22 -12 -139 -79 -260 -149 -208 -121 -318 -185 -907 -524
-137 -79 -248 -146 -248 -151 0 -4 11 -24 25 -44 14 -20 25 -39 25 -41 0 -3
56 -102 125 -221 69 -119 140 -242 157 -273 17 -31 39 -68 49 -83 11 -14 19
-28 19 -31 0 -4 169 -297 177 -306 2 -3 22 6 46 19 23 13 51 28 62 34 11 6 22
13 25 16 3 3 19 12 35 21 17 9 145 82 285 163 140 82 332 192 425 246 94 54
184 106 202 117 17 10 62 36 100 57 37 22 152 88 255 148 103 60 193 111 201
114 11 4 13 -155 13 -937 -1 -517 1 -944 4 -948 3 -4 265 -8 582 -8 516 1 577
2 580 16 2 9 3 436 3 949 -1 811 1 932 13 927 8 -3 90 -49 181 -102 508 -294
1047 -605 1106 -637 11 -6 27 -16 35 -22 8 -7 40 -25 70 -41 30 -17 95 -53
143 -81 49 -29 92 -52 95 -52 4 0 46 69 95 153 48 83 94 163 102 177 88 152
173 299 178 310 4 8 15 29 25 45 40 65 182 314 182 318 0 5 -35 26 -120 75
-95 53 -1515 874 -1518 877 -2 2 31 23 73 47 42 24 84 48 93 53 31 18 176 102
212 122 19 11 136 79 260 150 270 156 262 152 486 281 98 57 186 107 194 113
8 5 83 48 165 95 83 47 152 88 154 89 3 3 -43 89 -86 160 -6 11 -20 36 -31 55
-10 19 -77 134 -147 255 -71 121 -138 238 -150 261 -13 22 -34 58 -47 80 -23
37 -77 131 -103 181 l-12 22 -74 -43 c-65 -37 -348 -201 -894 -516 -88 -51
-176 -101 -195 -112 -186 -107 -439 -254 -455 -264 -11 -8 -22 -14 -25 -14 -3
0 -6 422 -5 938 0 515 -1 943 -3 950 -6 18 -1158 18 -1164 0z"/>
</g>
</svg>
