<svg width="100" height="100" viewBox="0 0 100 100" fill="none" xmlns="http://www.w3.org/2000/svg">
<g clip-path="url(#clip0_3_15)">
<path fill-rule="evenodd" clip-rule="evenodd" d="M59.1819 7C57.6253 7 56.3636 8.26174 56.3636 9.81819C56.3636 11.3746 57.6253 12.6364 59.1819 12.6364V21.0909C59.1819 22.6473 60.4436 23.9091 62 23.9091C63.5564 23.9091 64.8181 22.6473 64.8181 21.0909V12.6364C66.3747 12.6364 67.6364 11.3746 67.6364 9.81819C67.6364 8.26174 66.3747 7 64.8181 7H59.1819ZM47.9091 38C47.9091 36.4436 46.6473 35.1819 45.0909 35.1819H36.6364C36.6364 33.6253 35.3746 32.3636 33.8182 32.3636C32.2617 32.3636 31 33.6253 31 35.1819V40.8181C31 42.3747 32.2617 43.6364 33.8182 43.6364C35.3746 43.6364 36.6364 42.3747 36.6364 40.8181H45.0909C46.6473 40.8181 47.9091 39.5564 47.9091 38ZM93 35.1819C93 33.6253 91.7383 32.3636 90.1819 32.3636C88.6253 32.3636 87.3636 33.6253 87.3636 35.1819H78.9091C77.3526 35.1819 76.0909 36.4436 76.0909 38C76.0909 39.5564 77.3526 40.8181 78.9091 40.8181H87.3636C87.3636 42.3747 88.6253 43.6364 90.1819 43.6364C91.7383 43.6364 93 42.3747 93 40.8181V35.1819ZM62 52.0909C60.4436 52.0909 59.1819 53.3526 59.1819 54.9091V63.3636C57.6253 63.3636 56.3636 64.6253 56.3636 66.1819C56.3636 67.7383 57.6253 69 59.1819 69H64.8181C66.3747 69 67.6364 67.7383 67.6364 66.1819C67.6364 64.6253 66.3747 63.3636 64.8181 63.3636V54.9091C64.8181 53.3526 63.5564 52.0909 62 52.0909Z" fill="#37B158"/>
<path fill-rule="evenodd" clip-rule="evenodd" d="M48.1758 20.1902L44.065 16.0795C45.1656 14.9789 45.1655 13.1945 44.065 12.094C42.9644 10.9934 41.1801 10.9934 40.0795 12.094L36.094 16.0795C34.9934 17.1801 34.9934 18.9644 36.094 20.065C37.1946 21.1656 38.9789 21.1656 40.0795 20.065L44.1903 24.1757C43.4281 25.1576 42.7518 26.1954 42.1613 27.2891C41.5708 28.3828 41.0741 29.5176 40.6713 30.6935C40.2685 31.8694 39.965 33.0704 39.7608 34.2965C39.5567 35.5225 39.4546 36.7571 39.4546 38C39.4546 39.2429 39.5567 40.4775 39.7608 41.7035C39.965 42.9296 40.2685 44.1304 40.6713 45.3063C41.0741 46.4822 41.5708 47.617 42.1613 48.7107C42.7518 49.8044 43.4281 50.8423 44.1902 51.8243L40.0796 55.9349C38.979 54.8344 37.1947 54.8344 36.0942 55.9349C34.9936 57.0356 34.9936 58.8198 36.0942 59.9205L40.0797 63.9059C41.1802 65.0064 42.9646 65.0064 44.0652 63.9059C45.1657 62.8052 45.1657 61.021 44.0652 59.9205L48.1757 55.8097C49.1576 56.5719 50.1954 57.2483 51.2891 57.8386C52.3828 58.4292 53.5176 58.926 54.6935 59.3288C55.8694 59.7316 57.0704 60.035 58.2965 60.2392C59.5225 60.4432 60.7571 60.5453 62 60.5453C63.2431 60.5453 64.4775 60.4432 65.7033 60.2392C66.9296 60.035 68.1304 59.7316 69.3065 59.3288C70.4824 58.926 71.6172 58.4292 72.7109 57.8386C73.8046 57.2483 74.8425 56.5719 75.8243 55.8097L79.9349 59.9203C78.8342 61.021 78.8342 62.8052 79.9349 63.9059C81.0354 65.0064 82.82 65.0064 83.9205 63.9059L87.9059 59.9203C89.0064 58.8198 89.0064 57.0354 87.9059 55.9349C86.8054 54.8344 85.021 54.8344 83.9205 55.9349L79.8099 51.8243C80.5719 50.8423 81.2481 49.8046 81.8386 48.7109C82.4292 47.6172 82.9258 46.4822 83.3286 45.3063C83.7314 44.1304 84.035 42.9296 84.2392 41.7035C84.4434 40.4775 84.5455 39.2429 84.5455 38C84.5455 36.7569 84.4434 35.5225 84.2392 34.2965C84.035 33.0702 83.7314 31.8694 83.3286 30.6935C82.9258 29.5176 82.4292 28.3828 81.8386 27.2891C81.2481 26.1953 80.5719 25.1575 79.8099 24.1756L83.9201 20.0651C85.0206 21.1657 86.8054 21.1659 87.9059 20.0653C89.0064 18.9647 89.0064 17.1803 87.9059 16.0798L83.9205 12.0942C82.8196 10.9937 81.0354 10.9937 79.9349 12.0942C78.8342 13.1948 78.8342 14.9791 79.9347 16.0796L75.8241 20.1901C74.8421 19.428 73.8044 18.7517 72.7109 18.1612C71.6172 17.5707 70.4824 17.074 69.3065 16.6712C68.1304 16.2684 66.9296 15.9649 65.7033 15.7607C64.4775 15.5566 63.2431 15.4545 62 15.4545C60.7571 15.4545 59.5225 15.5566 58.2965 15.7608C57.0704 15.9649 55.8694 16.2684 54.6935 16.6712C53.5176 17.0741 52.3828 17.5707 51.2891 18.1612C50.1954 18.7517 49.1576 19.428 48.1758 20.1902Z" fill="#37B158"/>
</g>
<g filter="url(#filter0_bi_3_15)">
<rect x="9" y="30" width="81" height="64" rx="16" fill="#808080" fill-opacity="0.2"/>
</g>
<defs>
<filter id="filter0_bi_3_15" x="2" y="23" width="95" height="78" filterUnits="userSpaceOnUse" color-interpolation-filters="sRGB">
<feFlood flood-opacity="0" result="BackgroundImageFix"/>
<feGaussianBlur in="BackgroundImageFix" stdDeviation="3.5"/>
<feComposite in2="SourceAlpha" operator="in" result="effect1_backgroundBlur_3_15"/>
<feBlend mode="normal" in="SourceGraphic" in2="effect1_backgroundBlur_3_15" result="shape"/>
<feColorMatrix in="SourceAlpha" type="matrix" values="0 0 0 0 0 0 0 0 0 0 0 0 0 0 0 0 0 0 127 0" result="hardAlpha"/>
<feOffset/>
<feGaussianBlur stdDeviation="25"/>
<feComposite in2="hardAlpha" operator="arithmetic" k2="-1" k3="1"/>
<feColorMatrix type="matrix" values="0 0 0 0 1 0 0 0 0 1 0 0 0 0 1 0 0 0 1 0"/>
<feBlend mode="normal" in2="shape" result="effect2_innerShadow_3_15"/>
</filter>
<clipPath id="clip0_3_15">
<rect width="62" height="62" fill="white" transform="translate(31 7)"/>
</clipPath>
</defs>
</svg>
