<svg width="100" height="100" viewBox="0 0 100 100" fill="none" xmlns="http://www.w3.org/2000/svg">
<path fill-rule="evenodd" clip-rule="evenodd" d="M49.5004 14.5625C51.8348 14.5625 52.6291 14.5777 53.3506 14.7511C54.0479 14.9184 54.7149 15.1952 55.3243 15.5723C55.9609 15.9616 56.5309 16.5152 58.1832 18.1699L67.8482 27.8667C69.4975 29.5244 70.0493 30.0993 70.4373 30.735C70.8133 31.3464 71.0891 32.0125 71.2559 32.7121C71.4287 33.4421 71.4438 34.239 71.4438 36.578V52.4311C71.4438 55.0257 71.4438 56.8324 71.3286 58.2407C71.2165 59.6186 71.0042 60.4124 70.7011 61.0116C70.0462 62.3013 69.0033 63.3476 67.7209 64.0046C67.1206 64.3088 66.3294 64.5217 64.953 64.6343C63.5523 64.7468 61.7515 64.7498 59.1654 64.7498H45.826C43.2429 64.7498 41.4391 64.7498 40.0354 64.6343C38.662 64.5187 37.8708 64.3088 37.2735 64.0046C35.9889 63.3483 34.9445 62.3005 34.2903 61.0116C33.9872 60.4124 33.7749 59.6186 33.6628 58.2376C33.5506 56.8324 33.5476 55.0226 33.5476 52.4311V26.8812C33.5476 24.2897 33.5476 22.4799 33.6628 21.0716C33.7749 19.6938 33.9872 18.8999 34.2903 18.3007C34.9445 17.0118 35.9889 15.964 37.2735 15.3077C37.8708 15.0035 38.662 14.7906 40.0384 14.6781C41.4391 14.5655 43.2429 14.5625 45.826 14.5625H49.5004ZM54.4117 10.3163C53.102 10 51.7347 10 49.7581 10H45.7289C43.2642 10 41.2754 10 39.6655 10.1308C38.0102 10.2677 36.555 10.5566 35.2089 11.244C33.0683 12.3371 31.3278 14.0823 30.2369 16.2293C29.5518 17.5798 29.2668 19.0398 29.1304 20.7006C29 22.3157 29 24.311 29 26.7839V52.5285C29 55.0013 29 56.9967 29.1304 58.6118C29.2668 60.2725 29.5548 61.7325 30.24 63.083C31.3295 65.2307 33.069 66.9769 35.2089 68.0713C36.555 68.7587 38.0102 69.0447 39.6655 69.1815C41.2754 69.3123 43.2642 69.3123 45.7289 69.3123H59.2625C61.7272 69.3123 63.716 69.3123 65.3259 69.1815C66.9812 69.0447 68.4364 68.7557 69.7825 68.0683C71.9231 66.9752 73.6637 65.23 74.7545 63.083C75.4396 61.7325 75.7246 60.2725 75.861 58.6118C75.9914 56.9967 75.9914 55.0013 75.9914 52.5285V36.3195C75.9914 34.3363 75.9914 32.9645 75.6761 31.6475C75.3976 30.4836 74.9382 29.3709 74.3149 28.3503C73.6115 27.1945 72.6444 26.2272 71.2468 24.825L71.0649 24.6425L61.3968 14.9457L61.2149 14.7632C59.8203 13.358 58.8502 12.3907 57.6981 11.682C56.682 11.0558 55.574 10.594 54.4148 10.3133L54.4117 10.3163ZM40.3689 34.3333C39.7658 34.3333 39.1875 34.5736 38.7611 35.0014C38.3347 35.4292 38.0951 36.0095 38.0951 36.6145C38.0951 37.2195 38.3347 37.7998 38.7611 38.2276C39.1875 38.6554 39.7658 38.8957 40.3689 38.8957H64.6225C65.2256 38.8957 65.8039 38.6554 66.2303 38.2276C66.6567 37.7998 66.8963 37.2195 66.8963 36.6145C66.8963 36.0095 66.6567 35.4292 66.2303 35.0014C65.8039 34.5736 65.2256 34.3333 64.6225 34.3333H40.3689ZM38.0951 45.7395C38.0951 45.1345 38.3347 44.5542 38.7611 44.1264C39.1875 43.6986 39.7658 43.4582 40.3689 43.4582H64.6225C65.2256 43.4582 65.8039 43.6986 66.2303 44.1264C66.6567 44.5542 66.8963 45.1345 66.8963 45.7395C66.8963 46.3445 66.6567 46.9247 66.2303 47.3526C65.8039 47.7804 65.2256 48.0207 64.6225 48.0207H40.3689C39.7658 48.0207 39.1875 47.7804 38.7611 47.3526C38.3347 46.9247 38.0951 46.3445 38.0951 45.7395ZM40.3689 52.5832C39.7658 52.5832 39.1875 52.8235 38.7611 53.2514C38.3347 53.6792 38.0951 54.2594 38.0951 54.8644C38.0951 55.4695 38.3347 56.0497 38.7611 56.4775C39.1875 56.9053 39.7658 57.1457 40.3689 57.1457H58.5591C59.1622 57.1457 59.7405 56.9053 60.1669 56.4775C60.5933 56.0497 60.8329 55.4695 60.8329 54.8644C60.8329 54.2594 60.5933 53.6792 60.1669 53.2514C59.7405 52.8235 59.1622 52.5832 58.5591 52.5832H40.3689Z" fill="#37B158"/>
<g filter="url(#filter0_bi_1_5)">
<path d="M34.7083 29.8286C34.2375 29.7994 33.75 29.7994 33.0417 29.7994H26.9917C23.6042 29.7994 20.8708 29.7994 18.6583 29.9786C16.3833 30.1661 14.3833 30.5578 12.5333 31.4994C9.59225 32.9986 7.20155 35.3908 5.70417 38.3328C4.7625 40.1828 4.36667 42.1828 4.17917 44.4578C4 46.6703 4 49.4036 4 52.7911V71.3911C4 74.7786 4 77.5119 4.17917 79.7244C4.36667 81.9994 4.75833 83.9994 5.7 85.8494C7.19918 88.7905 9.59134 91.1812 12.5333 92.6786C14.3833 93.6203 16.3833 94.0161 18.6583 94.2036C20.8707 94.3828 23.6039 94.3828 26.9912 94.3828H62.2583C65.6456 94.3828 68.3793 94.3828 70.5917 94.2036C72.8667 94.0161 74.8667 93.6244 76.7208 92.6828C79.6604 91.1829 82.0495 88.7908 83.5458 85.8494C84.4875 83.9994 84.8833 81.9994 85.0708 79.7244C85.25 77.5119 85.25 74.7786 85.25 71.3911V65.2911C85.25 61.9036 85.25 59.1703 85.0708 56.9578C84.8833 54.6828 84.4917 52.6828 83.55 50.8328C82.0508 47.8917 79.6587 45.501 76.7167 44.0036C74.8667 43.0619 72.8667 42.6661 70.5917 42.4786C68.3792 42.2994 65.6458 42.2994 62.2625 42.2994H56.3042C55.4667 42.2994 55.175 42.2994 54.9167 42.2828C53.5667 42.2015 52.2504 41.8291 51.0579 41.1911C49.8655 40.5532 48.8251 39.6648 48.0083 38.5869C47.8749 38.4114 47.7415 38.2121 47.4235 37.7374C47.3642 37.6488 47.2984 37.5505 47.225 37.4411L47.175 37.3619C47.1269 37.2905 47.0806 37.2217 47.0359 37.1553C46.7131 36.6756 46.4739 36.32 46.225 35.9869C44.8632 34.1904 43.1289 32.7098 41.1409 31.6468C39.153 30.5838 36.9586 29.9636 34.7083 29.8286Z" fill="#808080" fill-opacity="0.2"/>
</g>
<defs>
<filter id="filter0_bi_1_5" x="-3" y="22.7994" width="95.25" height="78.5833" filterUnits="userSpaceOnUse" color-interpolation-filters="sRGB">
<feFlood flood-opacity="0" result="BackgroundImageFix"/>
<feGaussianBlur in="BackgroundImageFix" stdDeviation="3.5"/>
<feComposite in2="SourceAlpha" operator="in" result="effect1_backgroundBlur_1_5"/>
<feBlend mode="normal" in="SourceGraphic" in2="effect1_backgroundBlur_1_5" result="shape"/>
<feColorMatrix in="SourceAlpha" type="matrix" values="0 0 0 0 0 0 0 0 0 0 0 0 0 0 0 0 0 0 127 0" result="hardAlpha"/>
<feOffset/>
<feGaussianBlur stdDeviation="25"/>
<feComposite in2="hardAlpha" operator="arithmetic" k2="-1" k3="1"/>
<feColorMatrix type="matrix" values="0 0 0 0 1 0 0 0 0 1 0 0 0 0 1 0 0 0 1 0"/>
<feBlend mode="normal" in2="shape" result="effect2_innerShadow_1_5"/>
</filter>
</defs>
</svg>
