<svg width="308" height="66" viewBox="0 0 308 66" fill="none" xmlns="http://www.w3.org/2000/svg">
<path d="M0.196838 0.785713H11.6283C14.4265 0.785713 16.4626 1.34174 17.7365 2.45405C19.0104 3.54357 19.6474 5.10976 19.6474 7.15262C19.6474 8.37833 19.329 9.43381 18.692 10.319C18.0549 11.1815 17.1905 11.8059 16.0986 12.1917C17.5089 12.5094 18.6237 13.1563 19.4427 14.1324C20.2617 15.0857 20.6712 16.3342 20.6712 17.8776C20.6712 19.9658 19.9774 21.6116 18.5896 22.8145C17.2246 24.0175 15.0179 24.619 11.9696 24.619H0.196838V0.785713ZM10.6046 19.9205C12.0832 19.9205 13.1069 19.7049 13.6758 19.2736C14.2446 18.8197 14.5289 18.1272 14.5289 17.1967C14.5289 16.2661 14.233 15.5736 13.6416 15.1198C13.0728 14.6659 12.0378 14.4388 10.5364 14.4388H6.33913V19.9205H10.6046ZM10.1269 10.285C11.4464 10.285 12.3336 10.0807 12.7885 9.67214C13.2663 9.24078 13.5051 8.63945 13.5051 7.86762C13.5051 7.07326 13.2663 6.48293 12.7885 6.09714C12.3336 5.68857 11.4577 5.48428 10.161 5.48428H6.33913V10.285H10.1269ZM37.6493 20.0567H29.6644L28.0264 24.619H22.2254L30.9269 0.785713H37.0692L45.7708 24.619H39.2873L37.6493 20.0567ZM31.4047 15.3581H35.909L33.6569 8.27619L31.4047 15.3581ZM49.1819 0.785713H55.3242V19.58H60.784V0.785713H66.9263V19.58H72.3861V0.785713H78.5284V24.619H49.1819V0.785713ZM83.9882 0.785713H101.391V5.48428H90.1305V10.1488H100.368V14.575H90.1305V19.9205H101.391V24.619H83.9882V0.785713ZM123.221 25.0617C119.877 25.0617 117.352 24.3354 115.646 22.8826C113.962 21.4073 113.075 19.3757 112.984 16.7881H119.331C119.422 17.8776 119.752 18.7401 120.321 19.3757C120.89 19.9886 121.856 20.295 123.221 20.295C124.586 20.295 125.576 20.0454 126.19 19.546C126.804 19.0465 127.111 18.343 127.111 17.435C127.111 17.0036 127.043 16.6066 126.907 16.2433C126.798 15.8647 126.571 15.5306 126.258 15.29C125.963 15.0176 125.53 14.8133 124.962 14.6771C124.416 14.5182 123.722 14.4388 122.88 14.4388H120.696V10.285H122.88C123.517 10.285 124.052 10.2169 124.484 10.0807C124.916 9.92174 125.257 9.71745 125.508 9.46785C125.781 9.21826 125.974 8.93436 126.088 8.61666C126.202 8.29897 126.258 7.96976 126.258 7.62928C126.258 7.28881 126.213 6.97112 126.122 6.67595C126.036 6.36693 125.871 6.08539 125.644 5.85881C125.417 5.63174 125.098 5.45024 124.689 5.31404C124.302 5.17785 123.813 5.10976 123.221 5.10976C122.129 5.10976 121.31 5.35935 120.764 5.85881C120.218 6.33547 119.911 7.08452 119.843 8.10595H113.496C113.587 5.47302 114.417 3.52079 115.987 2.24976C117.557 0.978738 119.968 0.343094 123.221 0.343094C126.475 0.343094 128.852 0.921904 130.353 2.07952C131.855 3.23714 132.605 4.91674 132.605 7.11857C132.605 8.36707 132.287 9.43381 131.65 10.319C131.036 11.1815 130.148 11.8059 128.988 12.1917C130.444 12.5321 131.547 13.1903 132.298 14.1664C133.072 15.1198 133.458 16.3683 133.458 17.9117C133.458 18.9784 133.254 19.9545 132.844 20.8398C132.435 21.7022 131.809 22.4513 130.967 23.0869C130.126 23.7225 129.056 24.2105 127.76 24.5509C126.486 24.8914 124.973 25.0617 123.221 25.0617ZM135.944 19.58H138.674C138.97 18.8082 139.209 17.9229 139.391 16.9243C139.596 15.9029 139.755 14.8246 139.869 13.6898C139.983 12.5321 140.062 11.3517 140.108 10.1488C140.176 8.92309 140.21 7.73143 140.21 6.57381V0.785713H157.75V19.58H160.172V29.0452H154.849V24.619H141.268V29.0452H135.944V19.58ZM151.607 19.58V5.82476H145.943V7.25476C145.943 10.0239 145.829 12.4187 145.601 14.4388C145.397 16.4364 145.055 18.15 144.578 19.58H151.607ZM174.546 25.0617C172.976 25.0617 171.486 24.8346 170.076 24.3807C168.665 23.9268 167.425 23.2118 166.356 22.2357C165.31 21.2371 164.479 19.9773 163.865 18.4564C163.251 16.913 162.944 15.0517 162.944 12.8726V12.1917C162.944 10.1035 163.251 8.31024 163.865 6.81214C164.479 5.31405 165.31 4.08833 166.356 3.135C167.425 2.18167 168.665 1.47793 170.076 1.02405C171.486 0.570165 172.976 0.343094 174.546 0.343094C176.116 0.343094 177.605 0.570165 179.016 1.02405C180.426 1.47793 181.655 2.18167 182.701 3.135C183.771 4.08833 184.612 5.31405 185.227 6.81214C185.841 8.31024 186.148 10.1035 186.148 12.1917V12.8726C186.148 15.0517 185.841 16.913 185.227 18.4564C184.612 19.9773 183.771 21.2371 182.701 22.2357C181.655 23.2118 180.426 23.9268 179.016 24.3807C177.605 24.8346 176.116 25.0617 174.546 25.0617ZM174.546 19.9545C175.228 19.9545 175.888 19.8524 176.525 19.6481C177.162 19.421 177.719 19.0465 178.197 18.5245C178.675 17.9798 179.061 17.2535 179.357 16.3455C179.653 15.4375 179.801 14.2798 179.801 12.8726V12.1917C179.801 10.8751 179.653 9.78554 179.357 8.92309C179.061 8.03785 178.675 7.34564 178.197 6.84619C177.719 6.32421 177.162 5.96095 176.525 5.75666C175.885 5.55197 175.218 5.44858 174.546 5.45024C173.863 5.45024 173.203 5.55238 172.567 5.75666C171.93 5.96095 171.372 6.32421 170.895 6.84619C170.417 7.34564 170.03 8.03785 169.734 8.92309C169.439 9.78554 169.291 10.8751 169.291 12.1917V12.8726C169.291 14.2798 169.439 15.4375 169.734 16.3455C170.03 17.2535 170.417 17.9798 170.895 18.5245C171.372 19.0465 171.93 19.421 172.567 19.6481C173.203 19.8524 173.863 19.9545 174.546 19.9545ZM190.739 0.785713H200.464C203.785 0.785713 206.231 1.51198 207.801 2.96476C209.393 4.39476 210.189 6.38078 210.189 8.92309C210.189 11.4654 209.393 13.4627 207.801 14.9155C206.231 16.3455 203.785 17.0605 200.464 17.0605H196.881V24.619H190.739V0.785713ZM199.781 12.0214C201.351 12.0214 202.454 11.7603 203.092 11.2383C203.728 10.7164 204.047 9.94452 204.047 8.92309C204.047 7.90166 203.728 7.12983 203.092 6.60786C202.454 6.08588 201.351 5.82476 199.781 5.82476H196.881V12.0214H199.781ZM241.223 0.785713H252.655C255.453 0.785713 257.489 1.34174 258.763 2.45405C260.037 3.54357 260.674 5.10976 260.674 7.15262C260.674 8.37833 260.355 9.43381 259.718 10.319C259.081 11.1815 258.217 11.8059 257.125 12.1917C258.535 12.5094 259.65 13.1563 260.469 14.1324C261.288 15.0857 261.698 16.3342 261.698 17.8776C261.698 19.9658 261.004 21.6116 259.616 22.8145C258.251 24.0175 256.044 24.619 252.996 24.619H241.223V0.785713ZM251.631 19.9205C253.11 19.9205 254.133 19.7049 254.702 19.2736C255.271 18.8197 255.555 18.1272 255.555 17.1967C255.555 16.2661 255.26 15.5736 254.668 15.1198C254.099 14.6659 253.064 14.4388 251.563 14.4388H247.366V19.9205H251.631ZM251.153 10.285C252.473 10.285 253.36 10.0807 253.815 9.67214C254.293 9.24078 254.532 8.63945 254.532 7.86762C254.532 7.07326 254.293 6.48293 253.815 6.09714C253.36 5.68857 252.484 5.48428 251.188 5.48428H247.366V10.285H251.153ZM265.967 0.785713H272.109V8.68476H275.692C279.012 8.68476 281.459 9.39976 283.028 10.8298C284.619 12.2598 285.417 14.2005 285.417 16.6519C285.417 19.1033 284.619 21.044 283.028 22.474C281.459 23.904 279.012 24.619 275.692 24.619H265.967V0.785713ZM275.009 19.58C276.443 19.58 277.477 19.3076 278.115 18.7629C278.75 18.2181 279.07 17.5144 279.07 16.6519C279.07 15.7895 278.75 15.0857 278.115 14.541C277.477 13.9962 276.443 13.7238 275.009 13.7238H272.109V19.58H275.009ZM289.509 0.785713H306.913V5.48428H295.652V10.1488H305.889V14.575H295.652V19.9205H306.913V24.619H289.509V0.785713ZM0.163452 41.6429H6.30575V50.6995H15.1779V41.6429H21.3202V65.4762H15.1779V55.7386H6.30575V65.4762H0.163452V41.6429ZM39.4663 60.9138H31.4813L29.8433 65.4762H24.0423L32.7439 41.6429H38.8862L47.5877 65.4762H41.1042L39.4663 60.9138ZM33.2216 56.2152H37.7259L35.4738 49.1333L33.2216 56.2152ZM50.3163 41.6429H56.4586V60.4371H61.9184V41.6429H68.0607V60.4371H73.5206V41.6429H79.6628V65.4762H50.3163V41.6429ZM97.8167 60.9138H89.8318L88.1938 65.4762H82.3928L91.0943 41.6429H97.2366L105.938 65.4762H99.4547L97.8167 60.9138ZM91.5721 56.2152H96.0764L93.8242 49.1333L91.5721 56.2152ZM125.207 65.9188C121.863 65.9188 119.338 65.1925 117.632 63.7398C115.949 62.2644 115.061 60.2329 114.97 57.6452H121.317C121.408 58.7348 121.738 59.5972 122.307 60.2328C122.876 60.8457 123.842 61.1521 125.207 61.1521C126.572 61.1521 127.562 60.9025 128.176 60.4031C128.79 59.9036 129.098 59.2002 129.098 58.2921C129.098 57.8608 129.029 57.4637 128.893 57.1005C128.784 56.7219 128.557 56.3879 128.244 56.1471C127.949 55.8748 127.517 55.6705 126.948 55.5343C126.402 55.3753 125.708 55.2959 124.866 55.2959H122.682V51.1421H124.866C125.503 51.1421 126.038 51.074 126.47 50.9379C126.902 50.7789 127.244 50.5746 127.494 50.325C127.767 50.0754 127.96 49.7915 128.074 49.4738C128.187 49.1561 128.244 48.8269 128.244 48.4864C128.244 48.146 128.199 47.8283 128.108 47.5331C128.022 47.2241 127.858 46.9426 127.63 46.7159C127.403 46.4889 127.084 46.3074 126.675 46.1712C126.288 46.035 125.799 45.9669 125.207 45.9669C124.115 45.9669 123.297 46.2165 122.751 46.7159C122.205 47.1926 121.897 47.9417 121.829 48.9631H115.482C115.573 46.3302 116.403 44.3779 117.973 43.1069C119.543 41.8359 121.954 41.2002 125.207 41.2002C128.46 41.2002 130.838 41.779 132.339 42.9367C133.841 44.0943 134.592 45.7739 134.592 47.9757C134.592 49.2242 134.273 50.2909 133.636 51.1762C133.022 52.0386 132.135 52.663 130.974 53.0488C132.43 53.3893 133.534 54.0474 134.284 55.0236C135.058 55.9769 135.445 57.2254 135.445 58.7688C135.445 59.8355 135.24 60.8117 134.83 61.6969C134.421 62.5594 133.795 63.3084 132.954 63.944C132.112 64.5797 131.043 65.0676 129.746 65.4081C128.472 65.7486 126.959 65.9188 125.207 65.9188ZM151.668 60.9138H143.683L142.045 65.4762H136.244L144.945 41.6429H151.088L159.789 65.4762H153.306L151.668 60.9138ZM145.423 56.2152H149.928L147.675 49.1333L145.423 56.2152ZM162.519 41.6429H180.093V46.6819H168.662V50.2228H172.586C174.245 50.2228 175.678 50.4043 176.885 50.7676C178.114 51.1081 179.124 51.6075 179.922 52.2657C180.741 52.9014 181.343 53.6844 181.731 54.615C182.117 55.523 182.311 56.5444 182.311 57.6793C182.311 60.1307 181.513 62.0486 179.922 63.4333C178.353 64.7952 175.906 65.4762 172.586 65.4762H162.519V41.6429ZM171.903 60.4371C173.381 60.4371 174.428 60.1988 175.043 59.7221C175.657 59.2227 175.964 58.5417 175.964 57.6793C175.964 56.8168 175.657 56.1471 175.043 55.6705C174.428 55.171 173.381 54.9214 171.903 54.9214H168.662V60.4371H171.903ZM196.462 65.9188C194.892 65.9188 193.401 65.6917 191.992 65.2379C190.58 64.784 189.341 64.069 188.272 63.0928C187.225 62.0942 186.395 60.8344 185.781 59.3136C185.167 57.7702 184.86 55.9088 184.86 53.7298V53.0488C184.86 50.9606 185.167 49.1674 185.781 47.6693C186.395 46.1712 187.225 44.9455 188.272 43.9921C189.341 43.0388 190.58 42.3351 191.992 41.8812C193.401 41.4273 194.892 41.2002 196.462 41.2002C198.032 41.2002 199.52 41.4273 200.932 41.8812C202.342 42.3351 203.57 43.0388 204.618 43.9921C205.686 44.9455 206.529 46.1712 207.143 47.6693C207.757 49.1674 208.064 50.9606 208.064 53.0488V53.7298C208.064 55.9088 207.757 57.7702 207.143 59.3136C206.529 60.8344 205.686 62.0942 204.618 63.0928C203.57 64.069 202.342 64.784 200.932 65.2379C199.52 65.6917 198.032 65.9188 196.462 65.9188ZM196.462 60.8117C197.144 60.8117 197.803 60.7095 198.441 60.5052C199.076 60.2782 199.636 59.9036 200.113 59.3817C200.591 58.8369 200.977 58.1106 201.273 57.2026C201.567 56.2946 201.717 55.137 201.717 53.7298V53.0488C201.717 51.7322 201.567 50.6427 201.273 49.7802C200.977 48.895 200.591 48.2028 200.113 47.7033C199.636 47.1814 199.076 46.8181 198.441 46.6138C197.803 46.4095 197.144 46.3074 196.462 46.3074C195.779 46.3074 195.118 46.4095 194.483 46.6138C193.845 46.8181 193.288 47.1814 192.811 47.7033C192.333 48.2028 191.945 48.895 191.651 49.7802C191.354 50.6427 191.207 51.7322 191.207 53.0488V53.7298C191.207 55.137 191.354 56.2946 191.651 57.2026C191.945 58.1106 192.333 58.8369 192.811 59.3817C193.288 59.9036 193.845 60.2782 194.483 60.5052C195.118 60.7095 195.779 60.8117 196.462 60.8117ZM217.27 46.6819H209.933V41.6429H230.749V46.6819H223.412V65.4762H217.27V46.6819ZM244.81 60.9138H236.825L235.187 65.4762H229.386L238.088 41.6429H244.23L252.932 65.4762H246.448L244.81 60.9138ZM238.566 56.2152H243.07L240.818 49.1333L238.566 56.2152ZM276.703 45.6766L269.941 49.5685V41.7857H265.153V49.5687L258.391 45.6768L255.997 49.811L262.759 53.7019L255.997 57.5927L258.391 61.7269L265.153 57.836V65.619H269.941V57.836L276.703 61.7269L279.097 57.5927L272.335 53.7019L279.097 49.811L276.703 45.6766ZM303.708 44.2489C301.404 44.2489 299.592 46.055 299.592 48.354C299.592 50.3243 300.991 51.9665 302.884 52.3769V58.6168C302.884 61.5726 300.498 63.9536 297.537 63.9536C296.834 63.9551 296.138 63.8181 295.488 63.5505C294.839 63.2828 294.248 62.8898 293.751 62.3939C293.254 61.898 292.86 61.3091 292.592 60.6609C292.323 60.0127 292.186 59.3181 292.188 58.6168V58.1244C295.398 57.7137 297.947 54.9223 297.947 51.638V45.07C297.947 44.167 297.206 43.4279 296.301 43.4279H295.479C294.986 43.4279 294.655 43.0997 294.655 42.607C294.655 42.1144 294.327 41.7857 293.833 41.7857C293.34 41.7857 293.009 42.1141 293.009 42.6068C293.009 44.0027 294.08 45.0697 295.479 45.0697H296.301V51.6383C296.301 54.3474 294.08 56.5642 291.366 56.5642C288.649 56.5642 286.428 54.3475 286.428 51.638V45.07H287.25C288.649 45.07 289.72 44.0027 289.72 42.607C289.72 42.1144 289.389 41.786 288.896 41.786C288.402 41.786 288.074 42.1144 288.074 42.607C288.074 43.0994 287.744 43.4281 287.25 43.4281H286.428C285.523 43.4281 284.783 44.1669 284.783 45.0703V51.6383C284.783 55.0046 287.331 57.714 290.542 58.1246V58.617C290.542 62.4759 293.668 65.596 297.537 65.596C301.404 65.596 304.53 62.4759 304.53 58.617V52.3771C306.422 51.9665 307.821 50.3246 307.821 48.354C307.821 46.055 306.013 44.2489 303.708 44.2489ZM304.283 48.9286C304.12 49.0929 303.955 49.1748 303.708 49.1748C303.624 49.1748 303.461 49.1748 303.378 49.0929C303.296 49.0109 303.215 49.0109 303.131 48.9286C302.968 48.7644 302.884 48.6002 302.884 48.354C302.884 48.1078 302.968 47.9434 303.131 47.7791C303.215 47.6972 303.296 47.6149 303.378 47.6149C303.708 47.4507 304.036 47.533 304.283 47.7791C304.448 47.9434 304.53 48.1076 304.53 48.354C304.53 48.6002 304.448 48.7644 304.283 48.9286Z" fill="#3DC362"/>
<path d="M225.651 0C218.848 0 213.313 5.522 213.313 12.3095C213.313 19.097 218.848 24.619 225.651 24.619C232.453 24.619 237.988 19.097 237.988 12.3095C237.988 5.522 232.453 0 225.651 0ZM225.651 21.6168C220.507 21.6168 216.322 17.4415 216.322 12.3095C216.322 7.1775 220.507 3.00221 225.651 3.00221C230.794 3.00221 234.979 7.1775 234.979 12.3095C234.979 17.4415 230.794 21.6168 225.651 21.6168Z" fill="#3DC362"/>
<path d="M230.575 10.4094H227.555V7.39645C227.555 7.27202 227.505 7.15271 227.417 7.06475C227.329 6.97679 227.209 6.92738 227.085 6.92738H224.217C224.155 6.92731 224.094 6.93939 224.037 6.96294C223.979 6.98649 223.928 7.02103 223.884 7.0646C223.84 7.10817 223.806 7.1599 223.782 7.21684C223.758 7.27379 223.746 7.33482 223.746 7.39645V10.4094H220.726C220.602 10.4095 220.482 10.4589 220.394 10.547C220.306 10.635 220.256 10.7543 220.256 10.8787V13.7403C220.256 13.8019 220.268 13.863 220.292 13.9199C220.316 13.9769 220.35 14.0286 220.394 14.0722C220.438 14.1158 220.489 14.1504 220.546 14.174C220.604 14.1976 220.665 14.2097 220.726 14.2096H223.746V17.2226C223.746 17.2842 223.758 17.3452 223.782 17.4022C223.806 17.4591 223.84 17.5108 223.884 17.5544C223.928 17.5979 223.979 17.6325 224.037 17.656C224.094 17.6796 224.155 17.6917 224.217 17.6917H227.085C227.209 17.6917 227.329 17.6423 227.417 17.5543C227.505 17.4663 227.555 17.347 227.555 17.2226V14.2096H230.575C230.668 14.2098 230.759 14.1823 230.836 14.1307C230.913 14.0792 230.974 14.0058 231.009 13.92C231.033 13.8629 231.045 13.8021 231.045 13.7403V10.8787C231.045 10.7543 230.995 10.635 230.907 10.547C230.819 10.4589 230.699 10.4095 230.575 10.4094Z" fill="#3DC362"/>
</svg>
