<svg width="222" height="136" viewBox="0 0 222 136" fill="none" xmlns="http://www.w3.org/2000/svg">
<path d="M0.800032 0H14.2C17.48 0 19.8667 0.653334 21.36 1.96C22.8534 3.24 23.6 5.08 23.6 7.48C23.6 8.92 23.2267 10.16 22.48 11.2C21.7334 12.2133 20.72 12.9467 19.44 13.4C21.0934 13.7733 22.4 14.5333 23.36 15.68C24.32 16.8 24.8 18.2667 24.8 20.08C24.8 22.5333 23.9867 24.4667 22.36 25.88C20.76 27.2933 18.1734 28 14.6 28H0.800032V0ZM13 22.48C14.7334 22.48 15.9334 22.2267 16.6 21.72C17.2667 21.1867 17.6 20.3733 17.6 19.28C17.6 18.1867 17.2534 17.3733 16.56 16.84C15.8934 16.3067 14.68 16.04 12.92 16.04H8.00003V22.48H13ZM12.44 11.16C13.9867 11.16 15.0267 10.92 15.56 10.44C16.12 9.93333 16.4 9.22667 16.4 8.32C16.4 7.38667 16.12 6.69333 15.56 6.24C15.0267 5.76 14 5.52 12.48 5.52H8.00003V11.16H12.44Z" fill="#3DC362"/>
<path d="M43.9019 22.64H34.5419L32.6219 28H25.8219L36.0219 0H43.2219L53.4219 28H45.8219L43.9019 22.64ZM36.5819 17.12H41.8619L39.2219 8.8L36.5819 17.12Z" fill="#3DC362"/>
<path d="M56.6203 0H63.8203V22.08H70.2203V0H77.4203V22.08H83.8203V0H91.0203V28H56.6203V0Z" fill="#3DC362"/>
<path d="M96.6203 0H117.02V5.52H103.82V11H115.82V16.2H103.82V22.48H117.02V28H96.6203V0Z" fill="#3DC362"/>
<path d="M11.4 62.52C7.48003 62.52 4.52003 61.6667 2.52003 59.96C0.546698 58.2267 0.106698 55.84 3.17842e-05 52.8H6.84003C6.9467 54.08 7.33337 55.0933 8.00003 55.84C8.6667 56.56 9.80003 56.92 11.4 56.92C13 56.92 14.16 56.6267 14.88 56.04C15.6 55.4533 15.96 54.6267 15.96 53.56C15.96 53.0533 15.88 52.5867 15.72 52.16C15.5867 51.7067 15.3334 51.3333 14.96 51.04C14.6134 50.72 14.1067 50.48 13.44 50.32C12.8 50.1333 11.9867 50.04 11 50.04H8.44003V45.16H11C11.7467 45.16 12.3734 45.08 12.88 44.92C13.3867 44.7333 13.7867 44.4933 14.08 44.2C14.4 43.9067 14.6267 43.5733 14.76 43.2C14.8934 42.8267 14.96 42.44 14.96 42.04C14.96 41.64 14.9067 41.2667 14.8 40.92C14.6934 40.5467 14.5067 40.2267 14.24 39.96C13.9734 39.6933 13.6 39.48 13.12 39.32C12.6667 39.16 12.0934 39.08 11.4 39.08C10.12 39.08 9.16003 39.3733 8.52003 39.96C7.88003 40.52 7.52003 41.4 7.44003 42.6H3.17842e-05C0.106698 39.5067 1.08003 37.2133 2.92003 35.72C4.76003 34.2267 7.5867 33.48 11.4 33.48C15.2134 33.48 18 34.16 19.76 35.52C21.52 36.88 22.4 38.8533 22.4 41.44C22.4 42.9067 22.0267 44.16 21.28 45.2C20.56 46.2133 19.52 46.9467 18.16 47.4C19.8667 47.8 21.16 48.5733 22.04 49.72C22.9467 50.84 23.4 52.3067 23.4 54.12C23.4 55.3733 23.16 56.52 22.68 57.56C22.2 58.5733 21.4667 59.4533 20.48 60.2C19.4934 60.9467 18.24 61.52 16.72 61.92C15.2267 62.32 13.4534 62.52 11.4 62.52Z" fill="#3DC362"/>
<path d="M25.5141 56.08H28.7141C29.0608 55.1733 29.3408 54.1333 29.5541 52.96C29.7941 51.76 29.9808 50.4933 30.1141 49.16C30.2474 47.8 30.3408 46.4133 30.3941 45C30.4741 43.56 30.5141 42.16 30.5141 40.8V34H51.0741V56.08H53.9141V67.2H47.6741V62H31.7541V67.2H25.5141V56.08ZM43.8741 56.08V39.92H37.2341V41.6C37.2341 44.8533 37.1008 47.6667 36.8341 50.04C36.5941 52.3867 36.1941 54.4 35.6341 56.08H43.8741Z" fill="#3DC362"/>
<path d="M69.9625 62.52C68.1225 62.52 66.3759 62.2533 64.7225 61.72C63.0692 61.1867 61.6159 60.3467 60.3625 59.2C59.1359 58.0267 58.1625 56.5467 57.4425 54.76C56.7225 52.9467 56.3625 50.76 56.3625 48.2V47.4C56.3625 44.9467 56.7225 42.84 57.4425 41.08C58.1625 39.32 59.1359 37.88 60.3625 36.76C61.6159 35.64 63.0692 34.8133 64.7225 34.28C66.3759 33.7467 68.1225 33.48 69.9625 33.48C71.8025 33.48 73.5492 33.7467 75.2025 34.28C76.8559 34.8133 78.2959 35.64 79.5225 36.76C80.7759 37.88 81.7625 39.32 82.4825 41.08C83.2025 42.84 83.5625 44.9467 83.5625 47.4V48.2C83.5625 50.76 83.2025 52.9467 82.4825 54.76C81.7625 56.5467 80.7759 58.0267 79.5225 59.2C78.2959 60.3467 76.8559 61.1867 75.2025 61.72C73.5492 62.2533 71.8025 62.52 69.9625 62.52ZM69.9625 56.52C70.7625 56.52 71.5359 56.4 72.2825 56.16C73.0292 55.8933 73.6825 55.4533 74.2425 54.84C74.8025 54.2 75.2559 53.3467 75.6025 52.28C75.9492 51.2133 76.1225 49.8533 76.1225 48.2V47.4C76.1225 45.8533 75.9492 44.5733 75.6025 43.56C75.2559 42.52 74.8025 41.7067 74.2425 41.12C73.6825 40.5067 73.0292 40.08 72.2825 39.84C71.5359 39.6 70.7625 39.48 69.9625 39.48C69.1625 39.48 68.3892 39.6 67.6425 39.84C66.8959 40.08 66.2425 40.5067 65.6825 41.12C65.1225 41.7067 64.6692 42.52 64.3225 43.56C63.9759 44.5733 63.8025 45.8533 63.8025 47.4V48.2C63.8025 49.8533 63.9759 51.2133 64.3225 52.28C64.6692 53.3467 65.1225 54.2 65.6825 54.84C66.2425 55.4533 66.8959 55.8933 67.6425 56.16C68.3892 56.4 69.1625 56.52 69.9625 56.52Z" fill="#3DC362"/>
<path d="M88.1438 34H99.5438C103.437 34 106.304 34.8533 108.144 36.56C110.01 38.24 110.944 40.5733 110.944 43.56C110.944 46.5467 110.01 48.8933 108.144 50.6C106.304 52.28 103.437 53.12 99.5438 53.12H95.3438V62H88.1438V34ZM98.7438 47.2C100.584 47.2 101.877 46.8933 102.624 46.28C103.37 45.6667 103.744 44.76 103.744 43.56C103.744 42.36 103.37 41.4533 102.624 40.84C101.877 40.2267 100.584 39.92 98.7438 39.92H95.3438V47.2H98.7438Z" fill="#3DC362"/>
<path d="M145.722 34H159.122C162.402 34 164.789 34.6533 166.282 35.96C167.775 37.24 168.522 39.08 168.522 41.48C168.522 42.92 168.149 44.16 167.402 45.2C166.655 46.2133 165.642 46.9467 164.362 47.4C166.015 47.7733 167.322 48.5333 168.282 49.68C169.242 50.8 169.722 52.2667 169.722 54.08C169.722 56.5333 168.909 58.4667 167.282 59.88C165.682 61.2933 163.095 62 159.522 62H145.722V34ZM157.922 56.48C159.655 56.48 160.855 56.2267 161.522 55.72C162.189 55.1867 162.522 54.3733 162.522 53.28C162.522 52.1867 162.175 51.3733 161.482 50.84C160.815 50.3067 159.602 50.04 157.842 50.04H152.922V56.48H157.922ZM157.362 45.16C158.909 45.16 159.949 44.92 160.482 44.44C161.042 43.9333 161.322 43.2267 161.322 42.32C161.322 41.3867 161.042 40.6933 160.482 40.24C159.949 39.76 158.922 39.52 157.402 39.52H152.922V45.16H157.362Z" fill="#3DC362"/>
<path d="M173.925 34H181.125V43.28H185.325C189.218 43.28 192.085 44.12 193.925 45.8C195.792 47.48 196.725 49.76 196.725 52.64C196.725 55.52 195.792 57.8 193.925 59.48C192.085 61.16 189.218 62 185.325 62H173.925V34ZM184.525 56.08C186.205 56.08 187.418 55.76 188.165 55.12C188.912 54.48 189.285 53.6533 189.285 52.64C189.285 51.6267 188.912 50.8 188.165 50.16C187.418 49.52 186.205 49.2 184.525 49.2H181.125V56.08H184.525Z" fill="#3DC362"/>
<path d="M200.722 34H221.122V39.52H207.922V45H219.922V50.2H207.922V56.48H221.122V62H200.722V34Z" fill="#3DC362"/>
<path d="M3.17842e-05 73H7.20003V83.64H17.6V73H24.8V101H17.6V89.56H7.20003V101H3.17842e-05V73Z" fill="#3DC362"/>
<path d="M46.0707 95.64H36.7107L34.7907 101H27.9907L38.1907 73H45.3907L55.5907 101H47.9907L46.0707 95.64ZM38.7507 90.12H44.0307L41.3907 81.8L38.7507 90.12Z" fill="#3DC362"/>
<path d="M58.7891 73H65.9891V95.08H72.3891V73H79.5891V95.08H85.9891V73H93.1891V101H58.7891V73Z" fill="#3DC362"/>
<path d="M114.469 95.64H105.109L103.189 101H96.3891L106.589 73H113.789L123.989 101H116.389L114.469 95.64ZM107.149 90.12H112.429L109.789 81.8L107.149 90.12Z" fill="#3DC362"/>
<path d="M11.4 135.52C7.48003 135.52 4.52003 134.667 2.52003 132.96C0.546698 131.227 0.106667 128.84 0 125.8H6.84003C6.9467 127.08 7.33337 128.093 8.00003 128.84C8.6667 129.56 9.80003 129.92 11.4 129.92C13 129.92 14.16 129.627 14.88 129.04C15.6 128.453 15.96 127.627 15.96 126.56C15.96 126.053 15.88 125.587 15.72 125.16C15.5867 124.707 15.3334 124.333 14.96 124.04C14.6134 123.72 14.1067 123.48 13.44 123.32C12.8 123.133 11.9867 123.04 11 123.04H8.44003V118.16H11C11.7467 118.16 12.3734 118.08 12.88 117.92C13.3867 117.733 13.7867 117.493 14.08 117.2C14.4 116.907 14.6267 116.573 14.76 116.2C14.8934 115.827 14.96 115.44 14.96 115.04C14.96 114.64 14.9067 114.267 14.8 113.92C14.6934 113.547 14.5067 113.227 14.24 112.96C13.9734 112.693 13.6 112.48 13.12 112.32C12.6667 112.16 12.0934 112.08 11.4 112.08C10.12 112.08 9.16003 112.373 8.52003 112.96C7.88003 113.52 7.52003 114.4 7.44003 115.6H3.17842e-05C0.106698 112.507 1.08003 110.213 2.92003 108.72C4.76003 107.227 7.5867 106.48 11.4 106.48C15.2134 106.48 18 107.16 19.76 108.52C21.52 109.88 22.4 111.853 22.4 114.44C22.4 115.907 22.0267 117.16 21.28 118.2C20.56 119.213 19.52 119.947 18.16 120.4C19.8667 120.8 21.16 121.573 22.04 122.72C22.9467 123.84 23.4 125.307 23.4 127.12C23.4 128.373 23.16 129.52 22.68 130.56C22.2 131.573 21.4667 132.453 20.48 133.2C19.4934 133.947 18.24 134.52 16.72 134.92C15.2267 135.32 13.4534 135.52 11.4 135.52Z" fill="#3DC362"/>
<path d="M42.4175 129.64H33.0575L31.1375 135H24.3375L34.5375 107H41.7375L51.9375 135H44.3375L42.4175 129.64ZM35.0975 124.12H40.3775L37.7375 115.8L35.0975 124.12Z" fill="#3DC362"/>
<path d="M55.136 107H75.736V112.92H62.336V117.08H66.936C68.8826 117.08 70.5626 117.293 71.976 117.72C73.416 118.12 74.6026 118.707 75.536 119.48C76.496 120.227 77.2026 121.147 77.656 122.24C78.1093 123.307 78.336 124.507 78.336 125.84C78.336 128.72 77.4026 130.973 75.536 132.6C73.696 134.2 70.8293 135 66.936 135H55.136V107ZM66.136 129.08C67.8693 129.08 69.096 128.8 69.816 128.24C70.536 127.653 70.896 126.853 70.896 125.84C70.896 124.827 70.536 124.04 69.816 123.48C69.096 122.893 67.8693 122.6 66.136 122.6H62.336V129.08H66.136Z" fill="#3DC362"/>
<path d="M94.9235 135.52C93.0835 135.52 91.3368 135.253 89.6835 134.72C88.0301 134.187 86.5768 133.347 85.3235 132.2C84.0968 131.027 83.1235 129.547 82.4035 127.76C81.6835 125.947 81.3235 123.76 81.3235 121.2V120.4C81.3235 117.947 81.6835 115.84 82.4035 114.08C83.1235 112.32 84.0968 110.88 85.3235 109.76C86.5768 108.64 88.0301 107.813 89.6835 107.28C91.3368 106.747 93.0835 106.48 94.9235 106.48C96.7635 106.48 98.5101 106.747 100.163 107.28C101.817 107.813 103.257 108.64 104.483 109.76C105.737 110.88 106.723 112.32 107.443 114.08C108.163 115.84 108.523 117.947 108.523 120.4V121.2C108.523 123.76 108.163 125.947 107.443 127.76C106.723 129.547 105.737 131.027 104.483 132.2C103.257 133.347 101.817 134.187 100.163 134.72C98.5101 135.253 96.7635 135.52 94.9235 135.52ZM94.9235 129.52C95.7235 129.52 96.4968 129.4 97.2435 129.16C97.9901 128.893 98.6435 128.453 99.2035 127.84C99.7635 127.2 100.217 126.347 100.563 125.28C100.91 124.213 101.083 122.853 101.083 121.2V120.4C101.083 118.853 100.91 117.573 100.563 116.56C100.217 115.52 99.7635 114.707 99.2035 114.12C98.6435 113.507 97.9901 113.08 97.2435 112.84C96.4968 112.6 95.7235 112.48 94.9235 112.48C94.1235 112.48 93.3501 112.6 92.6035 112.84C91.8568 113.08 91.2035 113.507 90.6435 114.12C90.0835 114.707 89.6301 115.52 89.2835 116.56C88.9368 117.573 88.7635 118.853 88.7635 120.4V121.2C88.7635 122.853 88.9368 124.213 89.2835 125.28C89.6301 126.347 90.0835 127.2 90.6435 127.84C91.2035 128.453 91.8568 128.893 92.6035 129.16C93.3501 129.4 94.1235 129.52 94.9235 129.52Z" fill="#3DC362"/>
<path d="M119.314 112.92H110.714V107H135.114V112.92H126.514V135H119.314V112.92Z" fill="#3DC362"/>
<path d="M151.597 129.64H142.237L140.317 135H133.517L143.717 107H150.917L161.117 135H153.517L151.597 129.64ZM144.277 124.12H149.557L146.917 115.8L144.277 124.12Z" fill="#3DC362"/>
<g clip-path="url(#clip0_30_20)">
<path d="M128 34C120.28 34 114 40.2804 114 48C114 55.7195 120.28 62 128 62C135.72 62 142 55.7195 142 48C142 40.2804 135.72 34 128 34ZM128 58.5854C122.163 58.5854 117.415 53.8368 117.415 48C117.415 42.1632 122.163 37.4146 128 37.4146C133.837 37.4146 138.585 42.1632 138.585 48C138.585 53.8368 133.837 58.5854 128 58.5854Z" fill="#3DC362"/>
<path d="M133.588 45.839H130.161V42.4123C130.161 42.2708 130.105 42.135 130.005 42.035C129.905 41.9349 129.769 41.8787 129.627 41.8786H126.373C126.231 41.8786 126.095 41.9349 125.995 42.0349C125.895 42.135 125.839 42.2708 125.839 42.4123V45.839H122.412C122.271 45.839 122.135 45.8952 122.035 45.9953C121.935 46.0953 121.879 46.2311 121.879 46.3726V49.6274C121.879 49.7689 121.935 49.9046 122.035 50.0047C122.135 50.1048 122.271 50.161 122.412 50.161H125.839V53.5877C125.839 53.6578 125.853 53.7271 125.88 53.7919C125.906 53.8566 125.946 53.9155 125.995 53.965C126.045 54.0146 126.104 54.0539 126.168 54.0807C126.233 54.1075 126.303 54.1213 126.373 54.1213H129.627C129.769 54.1213 129.905 54.0651 130.005 53.965C130.105 53.8649 130.161 53.7292 130.161 53.5877V50.161H133.588C133.658 50.161 133.727 50.1472 133.792 50.1204C133.857 50.0936 133.916 50.0543 133.965 50.0047C134.015 49.9552 134.054 49.8963 134.081 49.8316C134.108 49.7668 134.121 49.6974 134.121 49.6274V46.3726C134.121 46.2311 134.065 46.0954 133.965 45.9953C133.865 45.8952 133.729 45.839 133.588 45.839Z" fill="#3DC362"/>
</g>
<path fill-rule="evenodd" clip-rule="evenodd" d="M151.438 18.788V9.212C151.438 7.63 150.598 6.188 149.24 5.39L140.924 0.588C139.552 -0.196 137.872 -0.196 136.514 0.588L128.198 5.39C126.84 6.188 126 7.644 126 9.212V18.788C125.999 19.5619 126.201 20.3225 126.587 20.9934C126.973 21.6643 127.528 22.2218 128.198 22.61L136.514 27.412C137.886 28.196 139.566 28.196 140.924 27.412L149.24 22.61C150.598 21.812 151.438 20.356 151.438 18.788ZM141.033 13.0446C140.421 13.6563 139.591 14 138.726 14C137.861 14 137.031 13.6563 136.419 13.0446C135.808 12.4328 135.464 11.6031 135.464 10.738C135.464 9.87285 135.808 9.04315 136.419 8.43141C137.031 7.81966 137.861 7.47599 138.726 7.47599C139.591 7.47599 140.421 7.81966 141.033 8.43141C141.644 9.04315 141.988 9.87285 141.988 10.738C141.988 11.6031 141.644 12.4328 141.033 13.0446ZM143.64 18.326C144.27 19.264 143.612 20.524 142.478 20.524H134.974C133.84 20.524 133.182 19.264 133.812 18.326C134.764 16.912 136.612 15.96 138.726 15.96C140.84 15.96 142.688 16.912 143.64 18.326Z" fill="#3DC362"/>
<path d="M199.743 125.529C199.595 125.414 198.417 124.531 195.15 124.316C194.97 124.302 194.789 124.175 194.629 124.069C194.426 123.935 194.215 123.795 194.061 123.613C193.811 123.317 193.529 123.068 193.291 122.739C191.703 120.544 190.146 120.103 189.913 120.016C189.603 119.868 188.416 120.051 188.986 120.836C189.022 120.841 190.803 123.321 190.918 123.519C191.123 123.869 191.354 124.012 191.571 124.257C191.77 124.482 191.989 124.688 192.192 124.908C192.192 124.908 191.054 124.24 190.781 123.947C190.66 123.816 190.601 123.628 190.504 123.472C190.392 123.293 190.274 123.118 190.152 122.945C190.001 122.728 189.845 122.515 189.685 122.305C189.479 122.039 189.265 121.778 189.052 121.517C188.92 121.354 188.771 121.197 188.662 121.027C188.123 120.184 188.738 119.679 189.323 119.616C189.295 119.519 189.026 116.969 188.979 116.541C188.845 115.312 188.712 114.401 188.001 114.153C187.818 114.089 187.688 114.111 187.552 114.254C187.39 114.422 187.294 115.315 187.248 115.879C187.248 115.879 186.937 118.908 187.012 120.321C187.052 121.079 189.427 126.293 190.109 127.099C190.791 127.904 196.129 130.955 196.129 130.955C196.307 131.102 197.296 131.856 197.296 132.846V134.993L203.051 135L203.055 133.029C203.069 132.665 203.131 132.303 203.175 131.94C203.301 131.526 203.2 130.743 203.142 130.439C202.474 127.482 200.012 125.735 199.743 125.529ZM220.753 115.879C220.706 115.314 220.61 114.421 220.448 114.253C220.312 114.11 220.182 114.089 219.999 114.153C219.289 114.401 219.156 115.312 219.022 116.54C218.974 116.969 218.705 119.518 218.677 119.615C219.262 119.679 219.877 120.183 219.338 121.026C219.23 121.197 219.081 121.354 218.948 121.516C218.736 121.778 218.521 122.038 218.315 122.304C218.155 122.514 217.999 122.728 217.849 122.945C217.726 123.117 217.609 123.293 217.496 123.472C217.4 123.628 217.341 123.816 217.219 123.947C216.946 124.24 215.808 124.908 215.808 124.908C216.011 124.688 216.231 124.481 216.429 124.257C216.646 124.011 216.877 123.868 217.082 123.518C217.198 123.32 218.978 120.841 219.014 120.835C219.585 120.05 218.397 119.868 218.087 120.016C217.854 120.103 216.298 120.544 214.709 122.739C214.472 123.068 214.189 123.317 213.939 123.613C213.785 123.795 213.574 123.935 213.371 124.069C213.211 124.175 213.03 124.301 212.85 124.316C209.583 124.531 208.406 125.414 208.257 125.528C207.988 125.735 205.527 127.481 204.858 130.438C204.799 130.742 204.699 131.525 204.825 131.939C204.869 132.302 204.932 132.665 204.945 133.029L204.95 134.999L210.704 134.993V132.845C210.704 131.856 211.693 131.101 211.871 130.954C211.871 130.954 217.209 127.904 217.891 127.098C218.573 126.293 220.948 121.078 220.988 120.32C221.064 118.907 220.753 115.879 220.753 115.879ZM207.469 122.616C210.199 120.07 213.588 116.909 214.053 114.096C214.38 112.106 214.061 110.467 213.104 109.222C212.138 107.965 210.668 107.248 208.611 107.029C208.425 107.01 208.239 107 208.053 107C206.597 107 205.128 107.537 204 108.445C202.873 107.537 201.403 107 199.948 107C199.769 107 199.589 107.009 199.39 107.029C197.333 107.248 195.863 107.965 194.897 109.222C193.94 110.467 193.621 112.106 193.948 114.096C194.413 116.909 197.802 120.07 200.532 122.616C200.532 122.616 201.894 123.97 202.303 124.318C202.611 124.58 203.278 125.107 204.001 125.107C204.723 125.107 205.391 124.58 205.698 124.318C206.107 123.97 207.469 122.616 207.469 122.616ZM200.534 110.356C198.795 110.356 197.38 111.604 197.38 113.138C197.38 113.361 197.29 113.576 197.131 113.734C196.971 113.892 196.755 113.98 196.53 113.98C196.304 113.98 196.088 113.892 195.929 113.734C195.769 113.576 195.68 113.361 195.68 113.138C195.68 110.675 197.857 108.671 200.534 108.671C200.759 108.671 200.976 108.76 201.135 108.918C201.294 109.076 201.384 109.29 201.384 109.514C201.384 109.737 201.294 109.951 201.135 110.109C200.976 110.268 200.759 110.356 200.534 110.356Z" fill="#3DC362"/>
<g clip-path="url(#clip1_30_20)">
<path d="M202.944 27.11V25.9413H204.472C204.964 25.9413 205.361 25.5438 205.361 25.0514V23.8648C205.361 23.3724 204.964 22.9749 204.472 22.9749H202.944V21.1031C204.024 20.9073 205.047 20.4979 205.961 19.8928C204.884 19.4715 203.893 18.8456 203.033 18.0269C202.503 18.1947 201.949 18.2759 201.392 18.2672C198.568 18.2316 196.266 15.9326 196.228 13.1086C196.189 10.3498 198.301 8.06569 200.992 7.82541C201.437 6.82276 202.069 5.9002 202.867 5.09927C202.908 5.05774 202.95 5.01918 202.988 4.98061C202.49 4.88569 201.977 4.83823 201.458 4.83823C199.268 4.83823 197.21 5.68959 195.661 7.23806C194.142 8.76279 193.294 10.777 193.264 12.9217C193.235 15.1169 194.089 17.2408 195.632 18.8011C196.83 20.0114 198.337 20.8035 199.977 21.1031V22.9749H198.45C197.957 22.9749 197.56 23.3724 197.56 23.8648V25.0514C197.56 25.5438 197.957 25.9413 198.45 25.9413H199.977V27.11C199.977 27.6025 200.375 28 200.867 28H202.054C202.546 28 202.944 27.6025 202.944 27.11ZM206.432 8.67084C206.082 9.02087 205.806 9.42431 205.611 9.86037C206.287 10.7414 206.69 11.8449 206.69 13.0404C206.69 13.5032 206.628 13.954 206.515 14.3812C207.257 15.0813 208.221 15.4669 209.247 15.4669H209.295C209.535 14.6927 209.66 13.8769 209.66 13.0404C209.66 11.1003 208.989 9.26115 207.758 7.79278C207.269 7.98856 206.818 8.2852 206.432 8.67084Z" fill="#3DC362"/>
<path d="M214.634 2.96642H215.67L213.75 4.88569C212.433 3.9839 210.879 3.4974 209.25 3.4974C207.385 3.4974 205.614 4.13222 204.19 5.30395C203.988 5.47007 203.789 5.64806 203.602 5.83791C203.003 6.43712 202.511 7.11643 202.134 7.8521C201.564 8.96451 201.262 10.2015 201.262 11.486C201.262 13.6188 202.092 15.6241 203.602 17.134C203.757 17.2882 203.914 17.4336 204.077 17.5701C204.922 18.2909 205.898 18.8219 206.945 19.1363C207.684 19.3588 208.458 19.4715 209.25 19.4715C211.383 19.4715 213.389 18.6409 214.898 17.1311C216.405 15.6241 217.239 13.6158 217.239 11.483C217.239 9.85443 216.752 8.29706 215.851 6.98294L217.77 5.06367V6.09895C217.77 6.59138 218.167 6.98888 218.66 6.98888H219.846C220.339 6.98888 220.736 6.59138 220.736 6.09895V1.48024C220.736 1.09461 220.579 0.71194 220.306 0.436063C220.033 0.163153 219.651 0 219.265 0H214.634C214.142 0 213.744 0.3975 213.744 0.889925V2.07649C213.745 2.56892 214.142 2.96642 214.634 2.96642ZM212.798 15.0338C211.849 15.983 210.588 16.5051 209.247 16.5051C209.132 16.5051 209.016 16.5022 208.9 16.4933C207.88 16.4251 206.919 16.0483 206.124 15.4135C205.976 15.2949 205.836 15.1703 205.7 15.0338C204.083 13.4171 203.801 10.9669 204.854 9.05946C205.077 8.65603 205.358 8.27633 205.7 7.93519C206.085 7.54956 206.524 7.23215 206.999 6.99484C207.687 6.64777 208.455 6.46385 209.247 6.46385C210.588 6.46385 211.849 6.98594 212.798 7.93519C214.756 9.893 214.756 13.0789 212.798 15.0338Z" fill="#3DC362"/>
</g>
<path d="M176.104 121.036C178.405 117.083 179.061 114.529 179.061 112.102C179.061 108.399 175.707 107 173.757 107C171.808 107 168.472 108.351 168.472 112.103C168.472 114.5 169.095 117.076 171.394 121.002L166 130.439L168.298 135L173.698 125.079L179.759 135L182 130.871L176.104 121.036ZM171.382 111.484C171.382 109.58 172.562 109.165 173.753 109.165C174.948 109.165 176.094 109.57 176.094 111.475C176.094 113.38 173.756 116.553 173.756 116.553C173.756 116.553 171.382 113.39 171.382 111.484Z" fill="#3DC362"/>
<path fill-rule="evenodd" clip-rule="evenodd" d="M174.699 1.0654L182.794 7.11165C183.478 7.62229 184.034 8.28969 184.417 9.05981C184.8 9.82992 185 10.6811 185 11.5444V22.5026C185 23.9606 184.431 25.3589 183.418 26.3898C182.406 27.4208 181.032 28 179.6 28H163.4C161.968 28 160.594 27.4208 159.582 26.3898C158.569 25.3589 158 23.9606 158 22.5026V11.5453C158 10.6817 158.2 9.83024 158.584 9.05995C158.967 8.28965 159.523 7.62219 160.208 7.11165L168.312 1.06449C169.238 0.372891 170.357 0 171.506 0C172.655 0 173.773 0.373807 174.699 1.0654ZM171.5 13.3402C170.545 13.3402 169.63 13.7263 168.954 14.4137C168.279 15.101 167.9 16.0332 167.9 17.0052V19.7539C167.9 19.9969 167.995 20.2299 168.164 20.4018C168.332 20.5736 168.561 20.6701 168.8 20.6701H174.2C174.439 20.6701 174.668 20.5736 174.836 20.4018C175.005 20.2299 175.1 19.9969 175.1 19.7539V17.0052C175.1 16.0332 174.721 15.101 174.046 14.4137C173.37 13.7263 172.455 13.3402 171.5 13.3402Z" fill="#3DC362"/>
<defs>
<clipPath id="clip0_30_20">
<rect width="28" height="28" fill="white" transform="translate(114 34)"/>
</clipPath>
<clipPath id="clip1_30_20">
<rect width="28" height="28" fill="white" transform="translate(193)"/>
</clipPath>
</defs>
</svg>
