<?xml version="1.0" encoding="utf-8"?><svg viewBox="0 0 512 512" xmlns="http://www.w3.org/2000/svg" xmlns:xlink="http://www.w3.org/1999/xlink"><style>:root>svg{display:none}:root>svg:target{display:block}</style><svg viewBox="0 0 24 24" id="arrow" xmlns="http://www.w3.org/2000/svg"><path d="M18 12l.354-.354.353.354-.353.354L18 12zm-12 .5a.5.5 0 010-1v1zm8.354-4.854l4 4-.708.708-4-4 .708-.708zm4 4.708l-4 4-.708-.708 4-4 .708.708zM18 12.5H6v-1h12v1z"/></svg><svg viewBox="0 0 24 24" id="arrow-d" xmlns="http://www.w3.org/2000/svg"><path d="M6 6l12 12m0 0v-8m0 8h-8"/></svg><svg viewBox="0 0 24 24" id="arrow-l" xmlns="http://www.w3.org/2000/svg"><path d="M15.23 5l-5.855 5.548A1.993 1.993 0 008.75 12c0 .529.208 1.057.625 1.452L15.23 19"/></svg><svg viewBox="0 0 24 24" id="arrow-r" xmlns="http://www.w3.org/2000/svg"><path d="M8.75 5l5.856 5.548c.417.395.625.923.625 1.452 0 .529-.208 1.057-.625 1.452L8.75 19"/></svg><svg viewBox="0 0 24 24" id="burger" xmlns="http://www.w3.org/2000/svg"><path d="M3 6h18M3 12h18M3 18h18" stroke-width="2" fill-rule="evenodd" stroke-linecap="round"/></svg><svg viewBox="0 0 24 24" id="cross" xmlns="http://www.w3.org/2000/svg"><path d="M6 6l12 12M6 18L18 6" stroke-width="2" fill-rule="evenodd" stroke-linecap="round"/></svg><svg viewBox="0 0 512 512" id="docs" xmlns="http://www.w3.org/2000/svg"><path d="M400.746 0H110.75C87.185 0 68.267 19.51 68.267 43.081v426.506c0 23.571 18.919 42.413 42.483 42.413h289.996c23.565 0 42.987-18.842 42.987-42.413V43.081C443.733 19.51 424.31 0 400.746 0zm25.921 469.587c0 14.16-11.767 25.346-25.921 25.346H110.75c-14.154 0-25.417-11.185-25.417-25.346V43.081c0-14.16 11.263-26.015 25.417-26.015h289.996c14.154 0 25.921 11.854 25.921 26.015v426.506z"/><path d="M298.414 59.733h-85.333a8.534 8.534 0 000 17.066h85.333a8.533 8.533 0 000-17.066zm76.801 51.2H136.281a8.534 8.534 0 000 17.066h238.933a8.533 8.533 0 00.001-17.066zm0 51.2H136.281a8.534 8.534 0 000 17.066h238.933a8.533 8.533 0 00.001-17.066zm0 51.2H136.281a8.534 8.534 0 000 17.066h238.933a8.533 8.533 0 00.001-17.066zm-25.6 110.934h-50.948v-50.865c0-4.713-4.073-8.869-8.786-8.869h-68.267c-4.712 0-8.281 4.156-8.281 8.869v50.865h-51.452c-4.712 0-8.281 4.156-8.281 8.869v68.267c0 4.713 3.569 8.198 8.281 8.198h51.452v51.535c0 4.713 3.569 8.198 8.281 8.198h68.267c4.713 0 8.786-3.485 8.786-8.198V409.6h50.948c4.713 0 8.786-3.485 8.786-8.198v-68.267c-.001-4.712-4.074-8.868-8.786-8.868zm-8.282 68.266h-51.452c-4.712 0-8.281 4.156-8.281 8.869v50.865h-51.2v-50.865c0-4.713-4.073-8.869-8.786-8.869h-50.948v-51.2h50.948c4.713 0 8.786-3.485 8.786-8.198V281.6h51.2v51.535c0 4.713 3.569 8.198 8.281 8.198h51.452v51.2z"/></svg><svg viewBox="0 0 84 68" id="folder" xmlns="http://www.w3.org/2000/svg"><g filter="url(#ha)"><path d="M31.708 1.829c-.47-.03-.958-.03-1.666-.03h-6.05c-3.388 0-6.121 0-8.334.18-2.275.187-4.275.579-6.125 1.52a15.625 15.625 0 00-6.829 6.834c-.942 1.85-1.337 3.85-1.525 6.125C1 18.67 1 21.404 1 24.79v18.6c0 3.388 0 6.12.18 8.333C1.366 54 1.757 56 2.7 57.85a15.625 15.625 0 006.833 6.83c1.85.941 3.85 1.337 6.125 1.525 2.213.179 4.946.179 8.333.179h35.267c3.388 0 6.121 0 8.334-.18 2.275-.187 4.275-.579 6.129-1.52a15.625 15.625 0 006.825-6.834c.941-1.85 1.337-3.85 1.525-6.125.179-2.212.179-4.945.179-8.333v-6.1c0-3.387 0-6.12-.18-8.333-.187-2.275-.578-4.275-1.52-6.125a15.625 15.625 0 00-6.833-6.83c-1.85-.941-3.85-1.337-6.125-1.524-2.213-.18-4.946-.18-8.33-.18h-5.958c-.837 0-1.129 0-1.387-.016a9.374 9.374 0 01-6.909-3.696 19.384 19.384 0 01-.585-.85l-.198-.296-.05-.08-.14-.206c-.322-.48-.561-.835-.81-1.168A15.625 15.625 0 0031.708 1.83z" fill-opacity=".2"/><path d="M31.708 1.829c-.47-.03-.958-.03-1.666-.03h-6.05c-3.388 0-6.121 0-8.334.18-2.275.187-4.275.579-6.125 1.52a15.625 15.625 0 00-6.829 6.834c-.942 1.85-1.337 3.85-1.525 6.125C1 18.67 1 21.404 1 24.79v18.6c0 3.388 0 6.12.18 8.333C1.366 54 1.757 56 2.7 57.85a15.625 15.625 0 006.833 6.83c1.85.941 3.85 1.337 6.125 1.525 2.213.179 4.946.179 8.333.179h35.267c3.388 0 6.121 0 8.334-.18 2.275-.187 4.275-.579 6.129-1.52a15.625 15.625 0 006.825-6.834c.941-1.85 1.337-3.85 1.525-6.125.179-2.212.179-4.945.179-8.333v-6.1c0-3.387 0-6.12-.18-8.333-.187-2.275-.578-4.275-1.52-6.125a15.625 15.625 0 00-6.833-6.83c-1.85-.941-3.85-1.337-6.125-1.524-2.213-.18-4.946-.18-8.33-.18h-5.958c-.837 0-1.129 0-1.387-.016a9.374 9.374 0 01-6.909-3.696 19.384 19.384 0 01-.585-.85l-.198-.296-.05-.08-.14-.206c-.322-.48-.561-.835-.81-1.168A15.625 15.625 0 0031.708 1.83z"/></g><defs><linearGradient id="hb" x1="41.625" y1="1.799" x2="41.625" y2="66.383" gradientUnits="userSpaceOnUse"><stop stop-color="#fff" stop-opacity=".23"/><stop offset="1" stop-color="gray" stop-opacity="0"/></linearGradient><filter id="ha" x="-5" y="-4.201" width="93.25" height="76.583" filterUnits="userSpaceOnUse" color-interpolation-filters="sRGB"><feFlood flood-opacity="0" result="BackgroundImageFix"/><feGaussianBlur in="BackgroundImageFix" stdDeviation="2.5"/><feComposite in2="SourceAlpha" operator="in" result="effect1_backgroundBlur_1_14"/><feBlend in="SourceGraphic" in2="effect1_backgroundBlur_1_14" result="shape"/><feColorMatrix in="SourceAlpha" values="0 0 0 0 0 0 0 0 0 0 0 0 0 0 0 0 0 0 127 0" result="hardAlpha"/><feOffset/><feGaussianBlur stdDeviation="25"/><feComposite in2="hardAlpha" operator="arithmetic" k2="-1" k3="1"/><feColorMatrix values="0 0 0 0 1 0 0 0 0 1 0 0 0 0 1 0 0 0 1 0"/><feBlend in2="shape" result="effect2_innerShadow_1_14"/></filter></defs></svg><svg viewBox="0 0 25 25" id="heart" xmlns="http://www.w3.org/2000/svg"><path d="M17 16c-1.2 1.323-4.5 4.5-4.5 4.5S9.2 17.323 8 16c-2.8-3.088-3.5-4.294-3.5-6.5 0-2.206 1.6-4 4-4 2 0 3.2 1.324 4 2.647.8-1.323 2-2.647 4-2.647 2.4 0 4 1.794 4 4s-.7 3.412-3.5 6.5z"/></svg><svg viewBox="0 0 24 24" id="location" xmlns="http://www.w3.org/2000/svg"><path class="jpin" d="M12 2C8.1 2 5 5.1 5 9c0 6 7 13 7 13s7-7.1 7-13c0-3.9-3.1-7-7-7zm0 9.5c-1.4 0-2.5-1.1-2.5-2.5s1.1-2.5 2.5-2.5 2.5 1.1 2.5 2.5-1.1 2.5-2.5 2.5z"/><path class="jhole" d="M0 0h24v24H0z"/></svg><svg viewBox="0 0 512 512" id="technology" version="1.1" xml:space="preserve" xmlns="http://www.w3.org/2000/svg"><g id="kSVGRepo_iconCarrier"><style/><path d="M476.5 160c-7.3-22.6-31.2-42.7-54.4-46.7-110.7-16.4-221.5-16.4-332.2 0-23.3 4-47.2 24.2-54.4 46.7-18 64.8-18 127.1 0 191.9 7.3 22.6 31.2 42.7 54.4 46.7 11.2 1.7 22.4 3.2 33.6 4.5v-28.4c0-3.9 3.1-7 7-7s7 3.1 7 7V404c0 .3 0 .5-.1.8 94.9 10 189.8 8 284.6-6 23.3-4 47.2-24.2 54.4-46.7 18.1-65 18.1-127.2.1-192.1zm-397.8-4.4c118.2-11.5 236.5-11.5 354.7 0 5.4 25.3 8.8 50.3 10.1 75.4H419c-2.9 0-5.5 1.8-6.5 4.4l-9.7 24.6-21.8-51.7c-1-2.3-3.1-3.9-5.6-4.2-2.5-.3-5 .8-6.5 2.8l-19.9 27h-13.5L310 192.3c-1.1-1.8-3-3-5.1-3.3-2.1-.3-4.3.5-5.8 2l-42.9 42.9h-41.6c-3.1 0-5.8 2-6.7 4.9l-9.7 31.2-21.2-70.3c-.7-2.3-2.6-4.2-5-4.8-2.4-.6-4.9.1-6.7 1.8L120.1 242H68c1-28.8 4.5-57.5 10.7-86.4zm58.7 202.3c-.1.4-.2.9-.4 1.3l-.6 1.2c-.3.4-.5.8-.9 1.1-.3.3-.7.6-1.1.9-.4.3-.8.5-1.2.6-.4.2-.9.3-1.3.4-.4.1-.9.1-1.4.1-1.9 0-3.6-.8-5-2.1-.3-.3-.6-.7-.9-1.1-.3-.4-.5-.8-.7-1.2-.2-.4-.3-.9-.4-1.3-.1-.5-.1-.9-.1-1.4s0-.9.1-1.4c.1-.4.2-.9.4-1.3s.4-.8.7-1.2.5-.7.9-1.1c1.6-1.6 4-2.4 6.3-1.9.5.1.9.2 1.3.4l1.2.6c.4.3.8.6 1.1.9.3.3.6.7.9 1.1.3.4.5.8.6 1.2.2.4.3.9.4 1.3.1.4.1.9.1 1.4s.1 1 0 1.5zm73 28.5c-8.5 0-15.5-6.9-15.5-15.5s6.9-15.5 15.5-15.5c8.5 0 15.5 6.9 15.5 15.5s-7 15.5-15.5 15.5zm56.2 0c-8.5 0-15.5-6.9-15.5-15.5s6.9-15.5 15.5-15.5c8.5 0 15.5 6.9 15.5 15.5s-7 15.5-15.5 15.5zm56.1 0c-8.5 0-15.5-6.9-15.5-15.5s6.9-15.5 15.5-15.5c8.5 0 15.5 6.9 15.5 15.5s-6.9 15.5-15.5 15.5zm116.1-57.8a2655.2 2655.2 0 01-365.6 0c-3.6-24.5-5.4-48.6-5.4-72.6H123c1.9 0 3.6-.7 5-2.1l39-39 24.4 81c.9 2.9 3.6 5 6.7 5s5.8-2 6.7-4.9l15-48.2H259c1.9 0 3.6-.7 5-2l38.7-38.7 22.9 37.4c1.3 2.1 3.5 3.3 6 3.3h21c2.2 0 4.3-1.1 5.6-2.8l14.7-20 23.7 56.1c1.1 2.6 3.6 4.3 6.5 4.3h.1c2.8 0 5.4-1.8 6.4-4.4l14.3-36.1h20.3c.6 27.8-1.2 55.6-5.4 83.7z"/></g></svg><svg viewBox="-1.5 0 24 24" id="theam" xmlns="http://www.w3.org/2000/svg"><path d="M6.53 8.098l.14-.012a.305.305 0 00.141-.053l-.001.001c.134.462.298.948.503 1.457.263.666.522 1.213.812 1.741l-.04-.08c-.024.364-.053.738-.091 1.1a2.565 2.565 0 01-.129.627l.005-.018c-.012.005-.029 2.08-.029 2.08a2.868 2.868 0 002.198 2.787l.02.004a.384.384 0 01.357-.246h.574a.39.39 0 01.356.243l.001.003a2.877 2.877 0 002.229-2.789v-.001s-.035-2.066-.053-2.08a3.152 3.152 0 01-.122-.593l-.001-.015c-.035-.364-.058-.729-.091-1.1.247-.446.506-.992.734-1.555l.038-.106c.205-.509.364-.994.503-1.457a.297.297 0 00.139.053h.001l.141.012c.17.018.32-.122.334-.339l.152-1.931v-.002a.32.32 0 00-.279-.317h-.019a7.143 7.143 0 00-.242-2.999l.013.051A4.27 4.27 0 0011.725.122l-.026-.004a5.847 5.847 0 00-.993-.112h-.021a5.49 5.49 0 00-1.038.118l.036-.006a4.295 4.295 0 00-3.114 2.419l-.011.027a7.047 7.047 0 00-.225 2.985l-.004-.037a.316.316 0 00-.282.313v.007l.152 1.931c.014.222.166.356.33.338z"/><path d="M21.416 20.878c-.07-3.04-.374-3.728-.538-4.194-.065-.187-.118-1.451-2.206-2.271-1.28-.504-2.932-.514-4.33-1.105v1.644a3.632 3.632 0 01-2.944 3.56l-.023.004a.384.384 0 01-.374.32h-.018v1.24a2.194 2.194 0 104.388 0v-.866a1.248 1.248 0 11.588-.055l-.009.003v.965a2.774 2.774 0 01-5.548 0v-.05.002-1.251a.381.381 0 01-.35-.318v-.002a3.635 3.635 0 01-2.954-3.556v-1.657c-1.404.603-3.066.615-4.353 1.12-2.094.819-2.142 2.08-2.206 2.27-.16.468-.468 1.153-.538 4.195-.012.4 0 1.013 1.206 1.549 2.626 1.03 6.009 1.35 9.344 1.58h.32c3.342-.228 6.72-.547 9.344-1.58 1.201-.533 1.212-1.142 1.201-1.546zm-14.681-1.24H5.489v1.251h-.89v-1.247H3.353v-.89h1.246v-1.246h.89v1.246h1.246z"/><path d="M16.225 17.965v-.001a.673.673 0 100 .001z"/></svg></svg>