<svg width="100" height="100" viewBox="0 0 100 100" fill="none" xmlns="http://www.w3.org/2000/svg">
<g clip-path="url(#clip0_4_18)">
<path d="M73.1983 12.7414C73.722 12.7414 74.1466 12.3168 74.1466 11.7931C74.1466 11.2694 73.722 10.8448 73.1983 10.8448C72.6746 10.8448 72.25 11.2694 72.25 11.7931C72.25 12.3168 72.6746 12.7414 73.1983 12.7414Z" fill="#37B158"/>
<path d="M60.8707 30.7586C61.3944 30.7586 61.819 30.3341 61.819 29.8104C61.819 29.2866 61.3944 28.8621 60.8707 28.8621C60.347 28.8621 59.9224 29.2866 59.9224 29.8104C59.9224 30.3341 60.347 30.7586 60.8707 30.7586Z" fill="#37B158"/>
<path d="M52.1854 28.7113C54.7666 26.1301 54.7666 21.9055 52.1854 19.3243L42.7975 9.93639C40.2163 7.35519 35.9917 7.35519 33.4105 9.93639C30.8293 12.5176 30.8293 16.7422 33.4105 19.3234L42.7984 28.7113C45.3797 31.2925 49.6033 31.2925 52.1854 28.7113Z" fill="#E7ECED"/>
<path d="M40.1708 39.2931H37.3259V36.4483C37.3259 35.9248 36.9011 35.5 36.3777 35.5C35.8542 35.5 35.4294 35.9248 35.4294 36.4483V39.2931H32.5846C32.0611 39.2931 31.6363 39.7179 31.6363 40.2414C31.6363 40.7648 32.0611 41.1897 32.5846 41.1897H35.4294V44.0345C35.4294 44.5579 35.8542 44.9828 36.3777 44.9828C36.9011 44.9828 37.3259 44.5579 37.3259 44.0345V41.1897H40.1708C40.6942 41.1897 41.1191 40.7648 41.1191 40.2414C41.1191 39.7179 40.6952 39.2931 40.1708 39.2931Z" fill="#37B158"/>
<path d="M83.2367 58.0955L85.248 56.0842C85.6188 55.7135 85.6188 55.1142 85.248 54.7434C84.8772 54.3726 84.2779 54.3726 83.9072 54.7434L81.8959 56.7547L79.8846 54.7434C79.5138 54.3726 78.9145 54.3726 78.5437 54.7434C78.1729 55.1142 78.1729 55.7135 78.5437 56.0842L80.555 58.0955L78.5437 60.1068C78.1729 60.4776 78.1729 61.0769 78.5437 61.4477C78.7286 61.6326 78.9714 61.7255 79.2141 61.7255C79.4569 61.7255 79.6997 61.6326 79.8846 61.4477L81.8959 59.4364L83.9072 61.4477C84.0921 61.6326 84.3348 61.7255 84.5776 61.7255C84.8203 61.7255 85.0631 61.6326 85.248 61.4477C85.6188 61.0769 85.6188 60.4776 85.248 60.1068L83.2367 58.0955Z" fill="#37B158"/>
<path d="M47.39 14.5289L42.7975 9.93639C40.2163 7.35519 35.9917 7.35519 33.4105 9.93639C30.8293 12.5176 30.8293 16.7422 33.4105 19.3234L38.003 23.9159L47.39 14.5289Z" fill="#37B158"/>
<path d="M76.9914 44.9828C80.6422 44.9828 83.6293 41.9957 83.6293 38.3449V25.069C83.6293 21.4181 80.6422 18.4311 76.9914 18.4311C73.3405 18.4311 70.3535 21.4181 70.3535 25.069V38.3449C70.3535 41.9957 73.3405 44.9828 76.9914 44.9828Z" fill="#E7ECED"/>
<path d="M83.6293 31.5637V25.069C83.6293 21.4181 80.6422 18.4311 76.9914 18.4311C73.3405 18.4311 70.3535 21.4181 70.3535 25.069V31.5637H83.6293Z" fill="#37B158"/>
<path d="M55.8714 56.5252L60.7199 51.6766C63.3011 49.0954 63.3011 44.8709 60.7199 42.2897C58.1387 39.7085 53.9141 39.7085 51.3329 42.2897L46.4844 47.1382L55.8714 56.5252Z" fill="#E7ECED"/>
<path d="M46.5631 47.0576L41.9441 51.6766C39.3628 54.2578 39.3628 58.4824 41.9441 61.0636C44.5253 63.6448 48.7498 63.6448 51.331 61.0636L55.9501 56.4446L46.5631 47.0576Z" fill="#37B158"/>
<path d="M50.9138 24.5948C50.671 24.5948 50.4283 24.5019 50.2433 24.317L37.4416 11.5153C37.0708 11.1445 37.0708 10.5452 37.4416 10.1744C37.8124 9.80364 38.4117 9.80364 38.7825 10.1744L51.5842 22.9761C51.955 23.3469 51.955 23.9462 51.5842 24.317C51.3993 24.5019 51.1565 24.5948 50.9138 24.5948Z" fill="white"/>
<path d="M80.7845 38.3448C80.261 38.3448 79.8362 37.92 79.8362 37.3965V23.84C79.8362 23.3166 80.261 22.8917 80.7845 22.8917C81.3079 22.8917 81.7328 23.3166 81.7328 23.84V37.3965C81.7328 37.92 81.3079 38.3448 80.7845 38.3448Z" fill="white"/>
<path d="M48.5431 58.362C48.3003 58.362 48.0576 58.2691 47.8727 58.0842C47.5019 57.7134 47.5019 57.1141 47.8727 56.7433L57.4588 47.1572C57.8296 46.7864 58.4289 46.7864 58.7996 47.1572C59.1704 47.5279 59.1704 48.1273 58.7996 48.498L49.2135 58.0842C49.0286 58.2691 48.7858 58.362 48.5431 58.362Z" fill="white"/>
</g>
<g filter="url(#filter0_bi_4_18)">
<rect x="9" y="30" width="81" height="64" rx="16" fill="#808080" fill-opacity="0.2"/>
</g>
<defs>
<filter id="filter0_bi_4_18" x="2" y="23" width="95" height="78" filterUnits="userSpaceOnUse" color-interpolation-filters="sRGB">
<feFlood flood-opacity="0" result="BackgroundImageFix"/>
<feGaussianBlur in="BackgroundImageFix" stdDeviation="3.5"/>
<feComposite in2="SourceAlpha" operator="in" result="effect1_backgroundBlur_4_18"/>
<feBlend mode="normal" in="SourceGraphic" in2="effect1_backgroundBlur_4_18" result="shape"/>
<feColorMatrix in="SourceAlpha" type="matrix" values="0 0 0 0 0 0 0 0 0 0 0 0 0 0 0 0 0 0 127 0" result="hardAlpha"/>
<feOffset/>
<feGaussianBlur stdDeviation="25"/>
<feComposite in2="hardAlpha" operator="arithmetic" k2="-1" k3="1"/>
<feColorMatrix type="matrix" values="0 0 0 0 1 0 0 0 0 1 0 0 0 0 1 0 0 0 1 0"/>
<feBlend mode="normal" in2="shape" result="effect2_innerShadow_4_18"/>
</filter>
<clipPath id="clip0_4_18">
<rect width="55" height="55" fill="white" transform="translate(31 8)"/>
</clipPath>
</defs>
</svg>
